/* XPM */
static char *e512bdaa15944e98bf759e4eb3dbdd44OmKU7ZJUgCpzjhSR[] = {
/* columns rows colors chars-per-pixel */
"64 64 172 2 ",
"   c #752838",
".  c #7C2F3F",
"X  c #7E323F",
"o  c #7A2E4A",
"O  c #7E3344",
"+  c #7E344B",
"@  c #7E3351",
"#  c #9F233F",
"$  c #DB071D",
"%  c #D40D1E",
"&  c #FB0405",
"*  c #FB0E03",
"=  c #F4060D",
"-  c #FD060B",
";  c #F40A0D",
":  c #FC0A0E",
">  c #E71E06",
",  c #E91E05",
"<  c #EC170F",
"1  c #E61E09",
"2  c #EB190C",
"3  c #F71000",
"4  c #F91101",
"5  c #F4140D",
"6  c #ED0712",
"7  c #EE0910",
"8  c #E5041A",
"9  c #E9011A",
"0  c #E00B1F",
"q  c #EF0E1B",
"w  c #F40212",
"e  c #FF0615",
"r  c #F40C13",
"t  c #FE0B14",
"y  c #FE051B",
"u  c #F40B1A",
"i  c #FE0C1D",
"p  c #ED1812",
"a  c #F51314",
"s  c #FC1114",
"d  c #F3131B",
"f  c #FE121B",
"g  c #FF191D",
"h  c #E62006",
"j  c #CE0622",
"k  c #DC0620",
"l  c #D40D23",
"z  c #DA1122",
"x  c #CC1C33",
"c  c #EB0422",
"v  c #E50A22",
"b  c #EA0B24",
"n  c #E60928",
"m  c #EB0D2B",
"M  c #FE0622",
"N  c #F30D21",
"B  c #FF0C21",
"V  c #F6072E",
"C  c #FE062B",
"Z  c #F3092B",
"A  c #FD0A2B",
"S  c #EB1124",
"D  c #E61028",
"F  c #EB1329",
"G  c #F31222",
"H  c #FD1321",
"J  c #FF1A24",
"K  c #E80E31",
"L  c #F60730",
"P  c #FE0631",
"I  c #F50933",
"U  c #FB0A31",
"Y  c #F20938",
"T  c #C72032",
"R  c #CB2235",
"E  c #C92138",
"W  c #81354D",
"Q  c #843A4C",
"!  c #803553",
"~  c #833953",
"^  c #8A3C50",
"/  c #A22545",
"(  c #CF1B42",
")  c #C92941",
"_  c #D12145",
"`  c #D92444",
"'  c #D42946",
"]  c #DA2C44",
"[  c #D6264A",
"{  c #D9254C",
"}  c #D52D4C",
"|  c #DC2C4B",
" . c #C7304F",
".. c #CD384B",
"X. c #D93146",
"o. c #D2324B",
"O. c #DB314C",
"+. c #D62E51",
"@. c #CD3750",
"#. c #CE3853",
"$. c #DC3151",
"%. c #E12B49",
"&. c #E03150",
"*. c #2CE7DE",
"=. c #3DE6DF",
"-. c #32EDDC",
";. c #04ECEC",
":. c #0EF7E4",
">. c #03FFEE",
",. c #16F7EF",
"<. c #12FCEF",
"1. c #0EEFF3",
"2. c #1CEFFF",
"3. c #0DF5F5",
"4. c #02FFF5",
"5. c #08FEF4",
"6. c #03F5FF",
"7. c #0EF7FF",
"8. c #01FFFF",
"9. c #0AFAFF",
"0. c #14F5F4",
"q. c #13FCF2",
"w. c #13F5FE",
"e. c #1AF0FF",
"r. c #10F8F8",
"t. c #33EEE3",
"y. c #34EBEC",
"u. c #36F1E5",
"i. c #38F2E5",
"p. c #37F0EC",
"a. c #38F3E8",
"s. c #39F2EE",
"d. c #39F3F2",
"f. c #3AF3F1",
"g. c #77CEC6",
"h. c #78CDC6",
"j. c #74C7CB",
"k. c #75CACB",
"l. c #74C6D1",
"z. c #74C8D2",
"x. c #79CBD5",
"c. c #7FD3D3",
"v. c #44ECDE",
"b. c #48EADF",
"n. c #49EBDE",
"m. c #58E2D2",
"M. c #59E2D8",
"N. c #41EBE0",
"B. c #41EAE7",
"V. c #47E8E1",
"C. c #49EAE2",
"Z. c #48E8E8",
"A. c #4AF3EC",
"S. c #BF9AAB",
"D. c #86B3B8",
"F. c #8EB3BB",
"G. c #8AB6BC",
"H. c #89B9BC",
"J. c #90B2BB",
"K. c #91B3BC",
"L. c #C9A5B1",
"P. c #82C5BE",
"I. c #8FB4C7",
"U. c #8FB4C4",
"Y. c #8AB8C6",
"T. c #8AB7CA",
"R. c #8DBACA",
"E. c #90B5C2",
"W. c #93B9C6",
"Q. c #93B8CB",
"!. c #9ABFCF",
"~. c #85C4C3",
/* pixels */
"/ S.M.<.6.8.9.6.e.7.5.4.4.8.9.9.8.8.8.8.8.8.8.8.8.8.8.8.8.8.8.8.8.8.8.8.8.8.8.8.8.8.8.8.8.8.8.8.8.8.8.8.8.8.8.8.8.8.8.8.8.8.8.8.",
" .O ~.B.1.8.6.9.w.w.5.4.4.8.9.6.8.8.8.8.8.8.8.8.8.8.8.8.8.8.8.8.8.8.8.8.8.8.8.8.8.8.8.8.8.8.8.8.8.8.8.8.8.8.8.8.8.8.8.8.8.8.8.8.",
"j +.o I.f.8.8.6.7.7.8.4.4.8.8.8.8.8.8.8.8.8.8.8.8.8.8.8.8.8.8.8.8.8.8.8.8.8.8.8.8.8.8.8.8.8.8.8.8.8.8.8.8.8.8.8.8.8.8.8.8.8.8.8.",
"u k _ @ l.d.3.8.9.7.6.9.5.4.4.4.8.8.8.8.8.8.8.8.8.8.8.8.8.8.8.8.8.8.8.8.8.8.8.8.8.8.8.8.8.8.8.8.8.8.8.8.8.8.8.8.8.8.8.8.8.8.8.8.",
"i 6 c { @ T.s.9.8.9.9.9.8.8.4.4.9.8.8.8.8.8.8.8.8.8.8.8.8.8.8.8.8.8.8.8.8.8.8.8.8.8.8.8.8.8.8.8.8.8.8.8.8.8.8.8.8.8.8.8.8.8.8.8.",
"& t y c { @ k.a.<.8.9.9.9.5.5.5.8.8.8.8.8.8.8.8.8.8.8.8.8.8.8.8.8.8.8.8.8.8.8.8.8.8.8.8.8.8.8.8.8.8.8.8.8.8.8.8.8.8.8.8.8.8.8.8.",
"= t i w c { + G.-.>.8.8.9.7.w.7.8.8.8.8.8.8.8.8.8.8.8.8.8.8.8.8.8.8.8.8.8.8.8.8.8.8.8.8.8.8.8.8.8.8.8.8.8.8.8.8.8.8.8.8.8.8.8.8.",
"d 6 w f y 8 %.~ g.-.<.8.9.7.w.7.8.8.8.8.8.8.8.8.8.8.8.8.8.8.8.8.8.8.8.8.8.8.8.8.8.8.8.8.8.8.8.8.8.8.8.8.8.8.8.8.8.8.8.8.8.8.8.8.",
"n S q r t e N x W G.i.4.8.9.7.9.9.8.8.8.8.8.8.8.8.8.8.8.8.8.8.8.8.8.8.8.8.8.8.8.8.8.8.8.8.8.8.8.8.8.8.8.8.8.8.8.8.8.8.8.8.8.8.8.",
"K m N u : : e u %.O k.t.3.8.9.8.8.8.8.8.8.8.8.8.8.8.8.8.8.8.8.8.8.8.8.8.8.8.8.8.8.8.8.8.8.8.8.8.8.8.8.8.8.8.8.8.8.8.8.8.8.8.8.8.",
"K L C e ; : - t 9 O.W Y.p.8.8.8.8.8.8.8.8.8.8.8.8.8.8.8.8.8.8.8.8.8.8.8.8.8.8.8.8.8.8.8.8.8.8.8.8.8.8.8.8.8.8.8.8.8.8.8.8.8.8.8.",
"P C M i u : : : y 9 { + j.y.0.6.8.8.8.8.8.8.8.8.8.8.8.8.8.8.8.8.8.8.8.8.8.8.8.8.8.8.8.8.8.8.8.8.8.8.8.8.8.8.8.8.8.8.8.8.8.8.8.8.",
"M y y M y y u u f w c [ W W.v.<.4.8.8.8.8.8.8.8.8.8.8.8.8.8.8.8.8.8.8.8.8.8.8.8.8.8.8.8.8.8.8.8.8.8.8.8.8.8.8.8.8.8.8.8.8.8.8.8.",
"e e i M M M u q r f y N ' + P.v.0.8.8.8.8.8.8.8.8.8.8.8.8.8.8.8.8.8.8.8.8.8.8.8.8.8.8.8.8.8.8.8.8.8.8.8.8.8.8.8.8.8.8.8.8.8.8.8.",
"3 * e y C Z D q r ; s ; $ o.X F.y.8.8.8.8.8.8.8.8.8.8.8.8.8.8.8.8.8.8.8.8.8.8.8.8.8.8.8.8.8.8.8.8.8.8.8.8.8.8.8.8.8.8.8.8.8.8.8.",
"3 * t y A V m b f = & s i $ ] Q x.y.0.9.8.8.8.8.8.8.8.8.8.8.9.9.8.8.8.8.8.8.8.8.8.8.8.8.8.8.8.8.8.8.8.8.8.8.8.8.8.8.8.8.8.8.8.8.",
"t t e i M y N u u t t t y N b T Q J.b.q.8.8.8.9.8.8.4.4.8.9.e.2.9.8.8.8.8.8.8.8.8.8.8.8.8.8.8.8.8.8.8.8.8.8.8.8.8.8.8.8.8.8.8.8.",
"y i i y i u i y y i y i y i i b X.X ~.C.0.8.8.8.9.8.4.4.4.9.e.e.9.8.8.8.8.8.8.8.8.8.8.8.8.8.8.8.8.8.8.8.8.8.8.8.8.8.8.8.8.8.8.8.",
"i i e i i i y i i y i i i i y u % ..O U.y.8.9.6.7.5.8.8.8.5.9.9.8.8.8.8.8.8.8.8.8.8.8.8.8.8.8.8.8.8.8.8.8.8.8.8.8.8.8.8.8.8.8.8.",
"y i i y y y i y y i e y i y i u d z ' + k.s.r.9.7.7.9.9.4.4.8.8.8.8.8.8.8.8.8.8.8.8.8.8.8.8.8.8.8.8.8.8.8.8.8.8.8.8.8.8.8.8.8.8.",
"y i y u i e i y i u y i y i i y f ; v o.~ R.i.4.5.w.w.w.9.4.4.4.8.8.8.8.8.8.8.8.8.8.8.8.8.8.8.8.8.8.8.8.8.8.8.8.8.8.8.8.8.8.8.8.",
"i y i i y i i i y t i y i y i t - s i n [ Q h.i.,.3.w.w.9.8.4.4.8.8.8.8.8.8.8.8.8.8.8.8.8.8.8.8.8.8.8.8.8.8.8.8.8.8.8.8.8.8.8.8.",
"e i i y y i y i y i y i y i i e : s g r S O.+ H.-.>.9.7.9.9.8.8.8.8.8.8.8.8.8.8.8.8.8.8.8.8.8.8.8.8.8.8.8.8.8.8.8.8.8.8.8.8.8.8.",
"i y e i i y i e i y i i y t y i f ; ; g f 8 %.Q h.-.,.9.7.9.8.8.8.8.8.8.8.8.8.8.8.8.8.8.8.8.8.8.8.8.8.8.8.8.8.8.8.8.8.8.8.8.8.8.",
"i i y i i i y i i M i i i i i i B B d p a a q R Q H.i.4.6.9.8.6.8.8.8.8.8.8.8.8.8.8.8.8.8.8.8.8.8.8.8.8.8.8.8.8.8.8.8.8.8.8.8.8.",
"i i i i i i B i i i i i i i i M A Z d a 5 5 t G X.O g.i.0.8.8.9.8.8.8.8.8.8.8.8.8.8.8.8.8.8.8.8.8.8.8.8.8.8.8.8.8.8.8.8.8.8.8.8.",
"B i i i B i i i i i i y i y i A C C A r p 2 s a 8 O.+ Y.y.8.8.8.8.8.8.8.8.8.8.8.8.8.8.8.8.8.8.8.8.8.8.8.8.8.8.8.8.8.8.8.8.8.8.8.",
"i i y i y i i i i B i i i i i M C C A i a 2 5 a i b ' @ j.s.0.9.8.8.8.8.8.8.8.8.8.8.8.8.8.8.8.8.8.8.8.8.8.8.8.8.8.8.8.8.8.8.8.8.",
"i i i i y B y B y i y B i i i i y i B B i f a p g r v O.@ W.C.<.4.8.8.8.8.8.8.8.8.8.8.8.8.8.8.8.8.8.8.8.8.8.8.8.8.8.8.8.8.8.8.8.",
"i y i i i i i i i B i i i i i t t s t i B A G d a g i b } Q ~.C.0.8.8.8.8.8.8.8.8.8.8.8.8.8.8.8.8.8.8.8.8.8.8.8.8.8.8.8.8.8.8.8.",
"B i i i i y B i i y B i i i i a h , s i C C A H r s s ; z ..X G.y.8.8.8.8.8.8.8.8.8.8.8.8.8.8.8.8.8.8.8.8.8.8.8.8.8.8.8.8.8.8.8.",
"i i y B i i i i i i i i y B i u h h s i C A A A f ; - g d % X.Q x.y.0.9.8.8.8.8.8.8.8.8.8.8.9.9.8.8.8.8.8.8.8.8.8.8.8.8.8.8.8.8.",
"e i e i i i i f i i B f i i i d a a i f B B A B i i i i d q F T Q J.n.<.9.8.8.8.8.8.4.4.4.9.e.2.9.8.8.8.8.8.8.8.8.8.8.8.8.8.8.8.",
"y y i y i i i i H i i i d i i i B H B B B B f f i u i i i i i F X.O P.C.0.8.8.9.8.8.4.4.4.9.e.e.9.8.8.8.8.8.8.8.8.8.8.8.8.8.8.8.",
"i y y i i i i i i i i i i i i f H B f B H B B B i i i i B i i G % ..W U.y.8.8.6.9.9.8.4.4.5.9.9.8.8.8.8.8.8.8.8.8.8.8.8.8.8.8.8.",
"y t i y i i i i i i i i B d i d H i B B f B f B d i B f B i i i d z ' + k.s.0.6.7.7.9.9.4.4.8.8.8.8.8.8.8.8.8.8.8.8.8.8.8.8.8.8.",
"i i i e i t i i i f i i f u f i i H i B B f B i i i i B B i i f g r b o.W R.i.4.9.w.w.w.9.4.4.4.8.8.8.8.8.8.8.8.8.8.8.8.8.8.8.8.",
"e t e i i i i f i i i f i i i i i B B f B f B H i B B f i i B i - s i n [ @ g.i.,.7.w.w.9.8.4.4.8.8.8.8.8.8.8.8.8.8.8.8.8.8.8.8.",
"t e t i i t i f t i t f f i a i i i B f B B H B B B B f B H B f : s g u b O.O H.-.>.9.7.9.9.8.8.8.8.8.8.8.8.8.8.8.8.8.8.8.8.8.8.",
"t e i t t i t t i f t i r f i i B H B B f B i B f f B B f B B i f r ; J i 8 | Q g.-.,.9.7.9.8.8.8.8.8.8.8.8.8.8.8.8.8.8.8.8.8.8.",
"e e t e t i t t i t i s i a i f f B H i B i B f B H i B B f i H H G G d s a G R Q Y.i.9.6.6.9.6.8.8.8.8.8.8.8.8.8.8.8.8.8.8.8.8.",
"y t t e i t t i t i s i f i f i f B B B i H B B B f B f B B H A A A G d < s f G %.+ k.u.w.6.8.8.8.8.8.8.8.8.8.8.8.8.8.8.8.8.8.8.",
"t e t t t i t t f t t t t a f f B B f f f B H i B B H i H f B B P P A f p p s a 8 $.@ T.f.8.8.8.8.8.8.8.8.8.8.8.8.8.8.8.8.8.8.8.",
"e t e t t t t t t t f f s i t f f B B B B B f B f B i B i B B B C C C B d p p s B n } @ z.d.1.9.8.8.8.8.8.8.8.8.8.8.8.8.8.8.8.8.",
"t : t t t t t ; s t s t f s s f i B B f B B H i B f B i B i i B B C B B B B d d J q n +.! Q.Z.0.9.8.8.8.8.8.8.8.8.8.8.8.8.8.8.8.",
": t : t t t t t t s t f r t s t H f B B f B i B B f B H i H B f t s i B A A G S r H i m +.! ~.C.0.8.8.8.8.8.8.8.8.8.8.8.8.8.8.8.",
"t : t : t : t t t t s t s t s f i B H i H i H i i B f B H i B d > > a C C P U A u r f u z @.O E.y.8.8.8.8.8.8.8.8.8.8.8.8.8.8.8.",
": t t : t t t t s t t s t f i f i f B i i B f B H B B B f B f d 1 1 i B C P U A H t t f N l O.~ z.y.q.9.8.8.8.8.8.9.8.8.8.8.8.8.",
": t : t : t t t t t t t i t i t t i i i i i i i f i i i i B i f a d i B B A B B B i i i B N F E W F.C.5.8.8.9.9.7.7.5.4.4.8.9.9.",
"t : t : t t t t t t t i t i i i i f s i i s i i i i f i i B i B B B B B B B B B i i B y B B i F ] . P.=.1.6.6.6.w.r.5.4.4.8.9.9.",
"t : : t : t : t t t t t t i i s f t f t t i i s f i i i i i B i B i B B B B B i B i B B i B M N $ o.+ E.s.8.8.6.w.7.9.4.5.4.8.8.",
": : t : t t s t t t t i i t i i t t i i i s i i i i B i B i i i B B i B B B B B M B B u B i i i B v [ W k.d.r.8.9.9.9.4.4.4.4.>.",
"t : s : t t t t t t t i t i i t f t i i i t t i B i i i B i i B B B B B i B B B i B B i B B i i a w c [ ! Y.t.4.8.9.9.9.8.4.>.>.",
"t : : t t t t t t t t t t f i i t i i s i i f i i i i B B i i B i B B i B B B i u B y B y B B i - f y b { + h.i.<.8.8.9.9.4.5.5.",
": : t : : t t : t t i t t i i t t s i t s i i i f i i f i i i i B H B B B B B B B B B B B i M i t s H y Z | W G.*.>.8.9.9.7.r.r.",
": t : t t t t t t t t t i t i f i s i f i t f i B i i i i B B i i B i B i B B B y i B i i B i B d 6 w H y 9 %.Q h.-.<.8.9.w.w.w.",
"; t : : - t : t e t t e i i e i i s i i f i i i f i i i B i i i B B B B B B B B B i B i B i i N G F u r t y N x ^ D.t.9.8.9.6.7.",
"t - : t t t t t e t t i t t i t i f i s f t i f i i B i i i B B B B i B B i i B i M i M B B B N K K G u t - e N R Q x.t.;.9.9.6.",
"- : t : - t e : t t e t i t t t t s t i i i i t B i i f i B i i i B B B H B B B B i B i i u B B U U C i r : : e c | o R.s.4.8.8.",
"- t - : t t t : t t t e t t y i i s i f t i f i i i B i i i B i B B i B B B i B B u B B M i B A C P C i i r : t B 8 ( ~ x.y.1.9.",
": : : t t t t t t t e i t t y t i s i i t f i i f i i i i B i i B B B B i B B i i B i B i B i i A C M M M y u u i i Z _ o ~.A.,.",
"t : : : - t : t t t t t t i t i i s t t i t i t B i B f i B i B B B i B B B B B B i B y B i B i t t i C C C N q = f y c [ W ~.m.",
": t : t : t t : t w e t e i i t t t t i t i i i B f i i i i B i i B B i i B B i i M u B i B B i 4 : t M L L m S d = t i F )   L.",
": : : : e : t t t e i t t t t i i t f t i t i i i i i i B i i f B B B B B B B B B B B i M i B t 4 4 e M P Y m m d ; - t u z #./ "
};
