/* XPM */
static char *_c29d22e863b4fcfb4e013a23ad2eba0w2l5WB0gxenvoTrI[] = {
/* columns rows colors chars-per-pixel */
"64 64 138 2 ",
"   c #8B8972",
".  c #949279",
"X  c #949278",
"o  c #7E7A6B",
"O  c #7C786A",
"+  c #66625D",
"@  c #7B7769",
"#  c #64615C",
"$  c #787466",
"%  c #54514C",
"&  c #504D4A",
"*  c #4F4C49",
"=  c #777366",
"-  c #524F4C",
";  c #332825",
":  c #615E58",
">  c #514E4A",
",  c #3F3B39",
"<  c #787467",
"1  c #362B27",
"2  c #4D4946",
"3  c #4E4B48",
"4  c #777365",
"5  c #3E3A38",
"6  c #332824",
"7  c #312522",
"8  c #615D58",
"9  c #3D3937",
"0  c #4D4A47",
"q  c #605D58",
"w  c #605C58",
"e  c #4F4B48",
"r  c #322724",
"t  c #4C4946",
"y  c #312623",
"u  c #3D3936",
"i  c #605C57",
"p  c #3C3835",
"a  c #3D3A37",
"s  c #64605B",
"d  c #332724",
"f  c #65615C",
"g  c #504D49",
"h  c #92722F",
"j  c #97742D",
"k  c #544F47",
"l  c #565047",
"z  c #98752C",
"x  c #93722E",
"c  c #66625C",
"v  c #97752C",
"b  c #92722E",
"n  c #3F3B38",
"m  c #716339",
"M  c #514E48",
"N  c #6C603B",
"B  c #95742D",
"V  c #97742C",
"C  c #554F46",
"Z  c #3E3B38",
"A  c #555047",
"S  c #504C49",
"D  c #815E1D",
"F  c #6E4515",
"G  c #362821",
"H  c #3D3836",
"J  c #787366",
"K  c #67625D",
"L  c #6F4514",
"P  c #7E5A1B",
"I  c #7E5C1C",
"U  c #423C35",
"Y  c #7B776A",
"T  c #7D796B",
"R  c #534E48",
"E  c #6C5F3B",
"W  c #6D4517",
"Q  c #7C591C",
"!  c #7E5C1D",
"~  c #95722B",
"^  c #635F5A",
"/  c #927331",
"(  c #3E3937",
")  c #3D3835",
"_  c #3E3A37",
"`  c #4E4B47",
"'  c #403C38",
"]  c #64605C",
"[  c #524E4A",
"{  c #96742D",
"}  c #3E3936",
"|  c #3F3A37",
" . c #3F3B37",
".. c #4F4C48",
"X. c #68645E",
"o. c #A4863F",
"O. c #99772E",
"+. c #97752D",
"@. c #BAAD4D",
"#. c #827D69",
"$. c #514E4B",
"%. c #91712F",
"&. c #BBAD4C",
"*. c #BEB14F",
"=. c #AB8D42",
"-. c #565149",
";. c #99762D",
":. c #98762D",
">. c #4B4946",
",. c #4B4845",
"<. c #524E48",
"1. c #514D49",
"2. c #514E49",
"3. c #67635E",
"4. c #302421",
"5. c #1E1D1C",
"6. c #2E2421",
"7. c #1D1D1C",
"8. c #1F1E1D",
"9. c gray1",
"0. c #010101",
"q. c #1A1A19",
"w. c #3C3836",
"e. c gray2",
"r. c black",
"t. c #5E5B56",
"y. c #090908",
"u. c #020202",
"i. c #5F5B56",
"p. c #625E5A",
"a. c #7A7668",
"s. c #7B7869",
"d. c #7C7869",
"f. c #635F5B",
"g. c #514D4A",
"h. c #3A3634",
"j. c #302522",
"k. c #322624",
/* pixels */
"  . X o O O O O O + @ O O O + @ + @ + @ + @ + # # # # # @ + @ + @ + @ O O O O O O O O O O O O O O O O O O O O O O + @ O O O + @ ",
"$ % & & & & & & & & & & & & & & & & & & & & & & & & & & & & & & & & & & & & & & & & & & & & & & & & & & & & & & & & & & & & & * ",
"= - * & * * * * * * * * * * * * * * * * * * * * * * * * * * * * * * * * * * * * * * * * * * * * * * * * * * * * * * * & * * * ; ",
": > , < 1 2 * * * * * * * * * * * * * * * * * * * * * * * * * * * * * * * * * * * * * * * * * * * * * * * * * * * * , < 1 2 * 3 ",
"4 - 5 6 7 2 * * * * * * * * * * * * * * * * * * * * * * * * * * * * * * * * * * * * * * * * * * * * * * * * * * * * 5 6 7 2 * ; ",
"8 > , 9 0 * * * * * * * * * * * * * * * * * * * * * * * * * * * * * * * * * * * * * * * * * * * * * * * * * * * * * , 9 0 * * 3 ",
"q > * * * * * * * * * * * * * * * * * * * * * * * * * * * * * * * * * * * * * * * * * * * * * * * * * * * * * * * * * * * * * ; ",
"w > * * * * * * e 3 3 3 3 3 3 3 3 3 * 3 * * * * * * * * * * * * * * * * * * * * * * * * * * * * * 3 * 3 * 3 3 3 * * * * * * * r ",
"t * * * * * * * ; 7 y y y y y y y y u r u 5 5 5 5 5 5 5 5 5 5 5 5 5 5 5 5 5 5 5 5 5 5 5 5 5 5 5 5 r u r u r y y 2 * * * * * * r ",
"i > * * * * * * r p 0 3 3 3 3 3 3 3 3 3 3 3 3 3 3 3 3 3 3 3 3 3 3 3 3 3 3 3 3 3 3 3 3 3 3 3 3 3 3 3 3 3 3 3 3 * * * * * * * * r ",
"t * * * * * * * r 2 , a a a a a a a a a a a a a a a a a a a a a a a a a a a a a a a a a a a a a a a a a a a 3 s > * * * * * * r ",
"w > * * * * * * d 2 5 9 9 9 9 9 9 9 9 9 9 9 9 9 9 9 9 9 9 9 9 9 9 9 9 9 9 9 9 9 9 9 9 9 9 9 9 9 9 9 9 9 9 9 3 & * * * * * * * d ",
"q > * * * * * * 5 3 5 9 9 9 9 9 9 9 9 9 9 9 9 9 9 9 9 9 9 9 9 9 9 9 9 9 9 9 9 9 9 9 9 9 9 9 9 9 9 9 9 9 9 9 3 s > * * * * * * 5 ",
"q > * * * * * * 5 3 5 9 9 9 9 9 9 9 9 9 9 9 9 9 9 9 9 9 9 9 9 9 9 9 9 9 9 9 9 9 9 9 9 9 9 9 9 9 9 9 9 9 9 9 3 f > * * * * * * ; ",
"q > * * * * * * ; 2 5 9 9 9 9 9 9 9 9 9 9 9 9 9 9 9 9 9 9 9 9 9 9 9 9 9 9 9 9 9 9 9 9 9 9 9 9 9 9 9 9 9 9 9 3 f > * * * * * * 5 ",
"q > * * * * * * 5 3 , a a a a a a a a a a a a a a a a a a a a a a a a a a a a a a a a a a a a a a a a a a a 3 f > * * * * * * 5 ",
"q > * * * * * * 5 3 3 3 3 3 3 3 3 3 3 3 3 3 3 3 3 3 3 3 3 3 3 3 3 3 3 3 3 3 3 3 3 3 3 3 3 3 3 3 3 3 3 3 3 3 * @ - * * * * * * 5 ",
"q > * * * * * * 5 3 , 5 5 5 5 5 5 5 5 5 5 5 5 5 5 5 5 5 5 5 5 5 5 5 5 5 5 5 5 5 5 5 5 5 5 5 5 5 5 5 5 5 5 5 3 O - * * * * * * ; ",
"q > * * * * * * 5 3 * * * * * * * * * * * * * * * * * * * * * * * * * * * * * * * * * * * * * * * * * * * * * O - * * * * * * 5 ",
"q > * * * * * * 5 3 * * * * * * * * * * * * * * * * * * * * * * * * * * * * * * * * * * * * * * * * * * * * * O - * * * * * * d ",
"q > * * * * * * 5 3 * * * * * * * * * * * * * * * * * * * * * * * * * * * * * * * * * * * * * * * * * * * * * O - * * * * * * r ",
"q > * * * * * * 5 3 * * * * * * * * * * * * * * * * * * * * * * * * * * * * * * * * * * * * * * * * * * * * * O - * * * * * * r ",
"q > * * * * * * 5 3 * * * * * * * * * * * * * * * * * * * * * * * * * * * * * * * * * * * * * * * * * * * * * O - * * * * * * r ",
"q > * * * * * * 5 3 * * * * * * * * * * * * * * * * * * * * * * * * * * * * * * * * * * * * * * * * * * * * * O - * * * * * * r ",
"q > * * * * * * ; 2 * * * * * * * * * * * * * * * * * * * * * * * * * * * * * * * * * * * * * * * * * * * * * O - * * * * * * r ",
"q > * * * * * * 5 3 * * * * * * * * * * * * * * * * * * * * * * * * * * * * * * * * * * * * * * * * * * * * * O - * * * * * * r ",
"q > * * * * * * d 2 * * * * * * * * * * * * * * * * * * * g g * * g g * * * * * * * * * * * * * * * * * * * * O - * * * * * * d ",
"q > * * * * * * r 2 * * * * * * * * * * * * * * * * * * g h j k * h j l * * * * * * * * * * * * * * * * * * * O - * * * * * * 5 ",
"w > * * * * * * r 2 * * * * * * * * * * * * * * * * * g h z z k * x z j l * * * * * * * * * * * * * * * * * * @ - * * * * * * ; ",
"t * * * * * * * r 2 * * * * * * * * * , 3 , 3 * * * g h z z z k * x z z j l * * * * * * * * * * * * * * * * * c > * * * * * * 5 ",
"i > * * * * * * r 2 * * * * * * * * , 0 , 3 * * * g h z z z v k * b z z z j l * * * * * * * * * * * * * * * * @ - * * * * * * ; ",
"t * * * * * * * r 2 * * * * 3 n 5 5 3 , 3 * * * g h z z z z m M * N B z z z V C e 3 * * * * * * * * * * * * * f > * * * * * * 5 ",
"i > * * * * * n y 2 * 3 n Z ; 7 8 & * * * * * g h z z z z j A * * S h z z z D F G 7 2 * * * * * * * * * * * * f > * * * * * * 5 ",
"t * * * * * * d H Z Z ; 7 J K & * g * * * * * h z z z v j l * g g * g h v D L P I U 9 3 g g * * * * * * * * * f > * * * * * * 5 ",
"w > * * * * * d 8 Y T K & & & * * h k g * * * h j j j m R * g h j l * g E W Q ! ~ k , ^ / j k * * * * * * * * f > * * * * * * 5 ",
"q > * * * * * 5 ( * & & * * * * * x l h k * * g g g g g * * h z z j k * 6 ) _ ` ' 3 * ] [ x k * * * * * * * * f > * * * * * * 5 ",
"q > * * * * * , r 2 * * * * * * * h { z k * * g g g g g * * h z z j k * 6 } |  ...& @ X.[ x l * * * * * * * * f > * * * * * * 5 ",
"q > * * * * * * 5 3 * * * * * * * g g h k * * h j j j m R * g h j l * g E o.O.+.@.#.X.$.%.j { k * * * * * * * f > * * * * * * 5 ",
"q > * * * * * * 5 3 * * * * * * * * * g * * * h z z z v j l * g g * g h v z &.*.=.-.& * g g g * * * * * * * * f > * * * * * * 5 ",
"w > * * * * * * d 2 * * * * * * * * * * * * * g h z z z z j A * * S h z z z ;.:.l * * * * * * * * * * * * * * f > * * * * * * 5 ",
"t * * * * * * * r 2 * * * * * * * * * * * * * * g h z z z z m M * N B z z z j l * * * * * * * * * * * * * * * f > * * * * * * 5 ",
"i > * * * * * * r 2 * * * * * * * * * * * * * * * g h z z z v k * b z z z j l * * * * * * * * * * * * * * * * f > * * * * * * 5 ",
">.* * * * * * * r 2 * * * * * * * * * * * * * * * * g h z z z k * x z z j l * * * * * * * * * * * * * * * * * f > * * * * * * ; ",
",.* * * * * * * r 2 * * * * * * * * * * * * * * * * * g h z z k * x z j l * * * * * * * * * * * * * * * * * * f > * * * * * * 5 ",
",.* * * * * * * r 2 * * * * * * * * * * * * * * * * * * g h j k * h j l * * * * * * * * * * * * * * * * * * * f > * * * * * * ; ",
",.* * * * * * * r 2 * * * * * * * * * * * * * * * * * * * g g * * g g * * * * * * * * * * * * * * * * * * * * f > * * * * * * 5 ",
">.* * * * * * * r 2 * * * * * * * * * * * * * * * * * * * * * * * * * * * * * * * * * * * * * * * * * * * * * f > * * * * * * 5 ",
"i > * * * * * * r 2 * * * * * * * * * * * * * * * * * * * * * * * * * * * * * * * * * * * * * * * * * * * * * f > * * * * * * 5 ",
"t * * * * * * * r 2 * * * * * * * * * * * * * * * * * * * * * * * * * * * * * * * * * * * * * * * * * * * * * f > * * * * * * 5 ",
"w > * * * * * * r 2 * * * * * * * * * * * * * * * * * * * * * * * * * * * * * * g * g * g g * * * g * * g g * @ - * * * * * * 5 ",
"q > * * * * * * r 2 * * * * * * * * * * * * * * * * * * * * * * * * * * * * g * h k h l %.j k g * h k g %.j k c > * * * * * * 5 ",
"q > * * * * * * r 2 * * * * * * * * * * * * * * * * * * * * * * * * * * * * %.k h k h { A h k %.k h k %.A h k @ - * * * * * * 5 ",
"q > * * * * * * r 2 * * * * * * * * * * * * * * * * * * * * * * * g * * g * <.* g g <.1.g <.* <.* <.* <.* <.* c > * * * * * * ; ",
"q > * * * * * * r 2 * * * * * * * * * * * * * * * * * * * * * * * h k g h k h k g %.j l %.j k h k h l %.A h k @ - * * * * * * 5 ",
"q > * * * * * * r 2 * * * * * * * * * * * * * * * * * * * * * * * h k %.j k h k %.A h { A h k h k h { A %.j k O - * * * * * * d ",
"q > * * * * * * ; 0 & & & & & & & & & & & & & & & & & & & & & & & > & > > & > & > & > > & > & 1.& 1.2.& > > & O - * * * * * * r ",
"q > * * * * * * e s f f f O T T T T T T T T T T T 3.O 3.O T T T T T T T T T T T T T T T T T T 3.O 3.O T T T T o - * * * * * * r ",
"w > * * * * * * * * * * * * * * * * * * * * * * & & & & & & & & & & & & & & & & * * * * * * * * * * * * * * & & * * * * * * * r ",
"t * * & * * * * * Z y 4.4.5.6.5.6.5.7.7.7.7.7.6.p 0 * * * * * * * * * * * * * Z y 4.4.5.6.5.6.5.7.7.7.7.7.6.p 0 * * * & * * * r ",
"i > , < 1 2 * * , 8.9.0.0.0.0.0.0.0.0.0.0.0.0.0.q.w.3 * * * * * * * * * * * , 8.9.0.0.0.0.0.0.0.0.0.0.0.0.0.q.w.3 * , < 1 2 * r ",
"t * 5 6 7 2 * * , e.r.r.r.r.r.r.r.r.r.r.r.r.r.r.0.t.> * * * * * * * * * * * , e.r.r.r.r.r.r.r.r.r.r.r.r.r.r.0.t.> * 5 6 7 2 * r ",
"i > , 9 0 * * * s y.u.u.u.u.u.u.u.u.u.u.u.u.u.u.u.i.> * * * * * * * * * * * s y.u.u.u.u.u.u.u.u.u.u.u.u.u.u.u.i.> * , 9 0 * * r ",
",.3 3 3 3 3 3 * * p.a.f s s s a.c a.f a.s.s.s.d.f > 3 3 3 3 * 3 * * * * * * * p.a.f f.s s a.f a.f a.s.s.s.s.f g.3 3 3 3 3 3 3 r ",
"h.y j.j.j.j.j.p y w.r w.9 9 9 _ 9 _ k.H r 7 7 H k.p y j.j.j.p y p 9 9 9 9 9 9 9 r w.k.w.9 r w.r w.r 7 7 7 7 7 j.j.j.j.j.j.j.j.4."
};
