/* XPM */
static char *_0a76b261e954a8b8d19b50f234d9bbd76aaqHRUEOuo7crn[] = {
/* columns rows colors chars-per-pixel */
"64 64 256 2 ",
"   c #0B0C05",
".  c #0C0D0C",
"X  c #060809",
"o  c #130C04",
"O  c #140C0B",
"+  c #1A0D0C",
"@  c #170505",
"#  c #0D110C",
"$  c #081107",
"%  c #12120D",
"&  c #191308",
"*  c #0C0C12",
"=  c #01021B",
"-  c #060817",
";  c #150C13",
":  c #0D1111",
">  c #061418",
",  c #141311",
"<  c #1C1A15",
"1  c #191817",
"2  c #270A05",
"3  c #271807",
"4  c #351909",
"5  c #231C15",
"6  c #221E19",
"7  c #291916",
"8  c #2E1614",
"9  c #24211C",
"0  c #2A231C",
"q  c #2C2517",
"w  c #362719",
"e  c #302207",
"r  c #010223",
"t  c #02032B",
"y  c #080A28",
"u  c #0A1727",
"i  c #181A26",
"p  c #020334",
"a  c #01033A",
"s  c #0B0C37",
"d  c #141638",
"f  c #11112F",
"g  c #1B283B",
"h  c #13232F",
"j  c #2A2624",
"k  c #322C24",
"l  c #352D28",
"z  c #262C37",
"x  c #362F30",
"c  c #211B23",
"v  c #4C1D01",
"b  c #472916",
"n  c #522E12",
"m  c #6D3414",
"M  c #4B362E",
"N  c #6A3D26",
"B  c #3B433E",
"V  c #57422F",
"C  c #724D31",
"Z  c #7D481A",
"A  c #010344",
"S  c #01034B",
"D  c #070948",
"F  c #161747",
"G  c #02035B",
"H  c #050856",
"J  c #161A58",
"K  c #0E1350",
"L  c #182946",
"P  c #1B2358",
"I  c #1B3352",
"U  c #2B3150",
"Y  c #020463",
"T  c #02036B",
"R  c #030B6C",
"E  c #060B66",
"W  c #081369",
"Q  c #151968",
"!  c #030C73",
"~  c #040C7B",
"^  c #070A77",
"/  c #06117B",
"(  c #0A1477",
")  c #131878",
"_  c #120D6E",
"`  c #201B7A",
"'  c #1B2567",
"]  c #19247B",
"[  c #0E2279",
"{  c #262A67",
"}  c #2A3768",
"|  c #363769",
" . c #273478",
".. c #2A2F74",
"X. c #2D195E",
"o. c #4A344E",
"O. c #374259",
"+. c #3C4349",
"@. c #2F4870",
"#. c #46465A",
"$. c #584D53",
"%. c #72584B",
"&. c #4F5175",
"*. c #685B70",
"=. c #586272",
"-. c #716671",
";. c #7B6657",
":. c #895533",
">. c #936338",
",. c #A46D39",
"<. c #A05A36",
"1. c #8C5D46",
"2. c #896546",
"3. c #966949",
"4. c #906E54",
"5. c #A87956",
"6. c #AD764D",
"7. c #92756E",
"8. c #AA7C66",
"9. c #C17D4B",
"0. c #B98659",
"q. c #B78657",
"w. c #B78766",
"e. c #AC8674",
"r. c #C68957",
"t. c #D08B50",
"y. c #C48B65",
"u. c #D0986B",
"i. c #E29B6F",
"p. c #D6A374",
"a. c #E5A978",
"s. c #EEB176",
"d. c #E09655",
"f. c #050B85",
"g. c #091588",
"h. c #141A87",
"j. c #030B96",
"k. c #0A1997",
"l. c #141D98",
"z. c #110F85",
"x. c #16248A",
"c. c #0B2499",
"v. c #13249D",
"b. c #172798",
"n. c #143095",
"m. c #242A87",
"M. c #283588",
"N. c #283699",
"B. c #2E3291",
"V. c #0B18A5",
"C. c #121BA5",
"Z. c #0E15B0",
"A. c #1323A4",
"S. c #1929A8",
"D. c #1734AB",
"F. c #122BB0",
"G. c #232CA7",
"H. c #2636A8",
"J. c #2B37B0",
"K. c #201E89",
"L. c #364C8E",
"P. c #3149AD",
"I. c #3E6BAA",
"U. c #485889",
"Y. c #545685",
"T. c #585B96",
"R. c #484D8E",
"E. c #5B679A",
"W. c #526991",
"Q. c #656796",
"!. c #747898",
"~. c #6B6E8C",
"^. c #4655AC",
"/. c #4666A4",
"(. c #556FB5",
"). c #6769A4",
"_. c #6B74A7",
"`. c #7478A7",
"'. c #6F78B7",
"]. c #6159A6",
"[. c #0C0ECE",
"{. c #1517E8",
"}. c #1619F4",
"|. c #2636C6",
" X c #384ACE",
".X c #5971C8",
"XX c #6873CC",
"oX c #4E5AF3",
"OX c #8A738B",
"+X c #7A83A7",
"@X c #7987B9",
"#X c #6682B9",
"$X c #788191",
"%X c #5A89D1",
"&X c #7A99D9",
"*X c #708CD2",
"=X c #7097E5",
"-X c #78A3E9",
";X c #77ACF4",
":X c #7EA1D9",
">X c #908B91",
",X c #AD9491",
"<X c #888AB8",
"1X c #8D92B1",
"2X c #A79CAA",
"3X c #AEACB8",
"4X c #95A0B4",
"5X c #C69B85",
"6X c #D1AA8F",
"7X c #EAB589",
"8X c #DDB8A5",
"9X c #EFC5A3",
"0X c #9497CA",
"qX c #969AD4",
"wX c #8893CC",
"eX c #8AA3DD",
"rX c #9AA6D8",
"tX c #9AA8C9",
"yX c #A5A7DA",
"uX c #ADB3D2",
"iX c #8B9AED",
"pX c #85A7EA",
"aX c #96A7E6",
"sX c #98B3EC",
"dX c #88B8FB",
"fX c #98B9F8",
"gX c #8CACF3",
"hX c #A9B7E8",
"jX c #A7B9F6",
"kX c #AFB5EC",
"lX c #C7BBD7",
"zX c #BAC3D9",
"xX c #9CCDFF",
"cX c #98C6FD",
"vX c #8DC4FF",
"bX c #A4C4FE",
"nX c #ABC5FD",
"mX c #A3CCFC",
"MX c #ACCBFE",
"NX c #A5CAF6",
"BX c #B3CBFD",
"VX c #B6C8FA",
"CX c #A5D1FE",
"ZX c #ACD3FF",
"AX c #B4D4FE",
"SX c #BBD3FB",
"DX c #B5DAFF",
"FX c #BBDBFE",
"GX c #BAD7F5",
"HX c #B6C5E7",
"JX c #BDE1FF",
"KX c #C3DAFE",
"LX c #D0D5F4",
"PX c #C8E2FF",
"IX c #EDECFE",
"UX c #D7D1E4",
/* pixels */
"            . . # * # : : : : : , # # $ $ $ $ $ $ $ $ X X - X $   .   X X * * X @ X       . - .           . # . # . # . : . * . ",
". o . .   # . % # % * # : : : : # # # $ $ $ $ # $ $ # > . - $ X       X @ - ; @ X       . . . * .             . . . * O O . . . ",
"% % % O # % % # : % : : : : : : * : : # X X $   # 1 9 9 6 ; ; ; o   @ o ; - * * X o     . . - * .         .   . . O # : * . * X ",
"& < , , < % , # , * , # * : : : : > * * : # # , k l l l w k 8 8 3 o   @ ; @ X @ o   O   O O O * . . .     .     . . . . . . . * ",
"< < < < < , , , , . . , : : : * : - - : > q q k k w w 4 w 4 8 4 3 & @ @ @ ; @ X O o O O . O * ; % . $           . . . . ; * . . ",
"6 6 6 9 6 < < 1 , , , : # . * : > - X * < < q k e 3 2 2 4 b b b b b 4 @ @ @ ; @ O O @ O + + ; + % . o       X   . . . % # . : * ",
"0 0 0 0 9 9 < < % % , # # . $ * 1 > $ $ $ & e n n n n C :.1.1.%.4.4.%.w 2 ; 8 ; @ + o O + ; ; ; O   #       X   .   . * O # ; . ",
"k j k j j 9 9 < , % % : . # * $ $ $ # < 3 e B V 2.3.q.w.u.u.u.u.6X8X,XN 2 @ 8 @ @ o + + + % ; ; # #                 . # * * . : ",
"k k l l k j 9 6 < 1 < % % # . O % $ q e e V C p.9Xs.p.u.7Xi.i.7Xu.9X6X,X2 8 2 ; + 2 ; + < + ; + % % # o         . . ; . . . . * ",
"k k x l l k j 9 6 < 1 , % # . # & & q M n C 2.p.p.p.s.u.a.i.i.i.6X6X9X8X4 2 8 @ + + ; 2 + + + ; % % %   .       . . . . . . * . ",
"k k x x l k 0 0 9 < < 1 < % % % $ & q C C 2.2.q.u.r.d.u.i.i.7X7X7Xp.w.e.M 8 @ + + + + + & + + ; % % # #   #     . . . . . . X * ",
"q k k k k k 0 9 < 9 < < < % % % & 3 w %.;.q.>.q.r.q.u.p.a.a.7Xi.a.w.3.3.N 2 @ + + + + & O + + + % % % % # . .   . . . X X . X X ",
"q q q k k 0 0 9 6 6 6 < < 1 < & & 3 w 4.;.q.q.q.u.>.Z n m N 6.8.0.,.5.e.M 2 8 @ + o & o o O O O % % # % % . # % . . . X . X X X ",
"q q 9 q q q 5 5 6 6 6 6 < < < < & 3 e 4.4.q.q.q.q.>.:.Z v v <.8.,.:.:.4.%.2 8 @ + o o o O o O + % & % % % # %   . . . . X . * O ",
"5 3 q q q 5 5 9 < 5 6 9 6 9 9 6 & e e ;.e.q.q.q.6.>.Z :.v m 3.5Xq.,.Z >.e.2 @ 3 & + O o o % % , % % % % % % % . . . . * . . X . ",
"< < 9 < 5 5 5 5 < < 6 9 9 c j 9 q w e ;.e.q.r.u.6.:.Z ,.N 1.y.7Xs.6.q.6X5X2 8 @ 5 + % % % , , 1 , , # % : , , ; * O O * * . * * ",
"5 7 j j j 0 7 0 q 0 j j x z z j x l %.5.u.i.9.d.t.d.y.6.3.r.7X7Xs.a.p.6X6X8 8 8 8 c c u > u h h i h 1 h h z c i c i c c i c c i ",
"j l x x o.M x x l x z z z z g z o.M 4.5.9.9.9.d.i.d.u.q.9.9.9.i.s.a.y.u.,XM o.$.o.x U z h h h L g z +.+.#.#.#.#.#.#.#.#.#.#.#.#.",
"| #.=.*.*.=.*.&.O.O.+.U I I I @.#.*.7.8.6.t.9.9.t.6.q.y.u.i.8.i.s.7X5X6X,X7.~.*.Y.Y.&.O.I I I I @.&.Y.~._.).!.~.!.OX!.!.~.~.~.~.",
"~.~.!.+X>X<X!.!.~.W.U.@.@.} @.W.Q.-.OXe.w.r.,.<.6.,.6.5.8.9.9.<.<.u.5X6X2XOX>X`.OXOX+XW.U.L.L.U.~._.+X@XOXwXOXwX0X<X<X<X1X<X1X1X",
"@X@XwXwXwXwX*X<X#X*X(.I.L.P.I.#X@X+X1X>X,X8.:.>.6.6.6.q.9.8.<.Z <.8.5X,X2X2XtX0XiXwXwX@X'.(.#X#X#X:XwXqXwXqXqXyXyXyXyXyXrXqXqXqX",
"eXrXeXaXpXaXeXeX:X:X%X#XI.I.%X%X:X@X4X3X>X4.%.4.1.3.3.5.8.8.<.Z :.5.5X,X2XtXrXeXgXpXpX:XeX&X:X:XwXeXrXaXaXsXkXkXjXkXjXkXhXyXyXsX",
"sXhXsXjXsXfXfXsX;X;X;X%X%X=X=X;X-X:XrXtX3X,X7.;.1.1.3.3.6.:.m m v N 7.7.3XuXHXfXsXsXsXgXfXgXgXgXsXsXsXsXhXjXjXVXjXkXVXkXnXkXjXhX",
"hXsXjXjXnXbXfXdXvX;X;X;X;X;X;X;X;X-XpXHXGXzX>XC %.1.3.3.1.N N :.<.:.8.OXlXHXBXMXMXNXcXfXfXcXjXjXfXfXsXjXjXnXVXVXjXKXVXVXSXBXBXBX",
"BXNXVXNXNXnXbXcXfXfXdXdXvXvX;XvXvXdXvXNXGXUX3X$.w V C C 4.4.:.C m 8.3.7.UXUXLXKXAXBXMXjXMXSXBXnXfXNXjXNXMXBXVXSXKXKXGXGXVXSXSXSX",
"VXVXVXVXBXMXNXNXcXcXcXcXvXxXxXvXxXxXxXcXGXGXzX;.V V m n C C C C 6.8.1.OXIXLXKXKXSXSXSXBXnXBXVXVXMXbXmXAXAXGXDXKXKXVXGXGXGXGXFXSX",
"KXGXGXSXGXMXMXNXNXNXxXxXCXCXCXCXvXvXxXCXJXGXLX,XV w e n N C 7.w.8.8.1.3XIXtX).].*XaXjXVXVXVXKXKXFXMXmXZXFXSXFXPXGXGXGXGXGXFXFXJX",
"KXKXKXFXFXDXZXNXNXNXNXNXCXDXCXCXCXxXCXDXJXGXIX3X$.n v v v n V V m m 7.3XIXU...W _ B..X&XiXjXVXKXAXZXMXmXDXJXJXGXGXGXGXGXFXFXJXFX",
"KXKXKXFXFXAXZXCXxXNXCXDXDXDXDXZXDXxXCXJXJXGXLX3X;.C N v 2 @ @ @ e b ,XlXHX' _ ( ( h.h.h.[ x.N.P.=XfXAXZXMXFXFXAXFXFXDXDXDXSXDXDX",
"FXFXDXDXDXZXCXmXNXCXCXDXJXJXJXDXNXxXJXJXGXhXzX>X;.%.C n 4 2 q q V 7.lXLXOXh.Y g.z.f.z.f.g.g.D.D.P.%XcXZXMXAXDXBXSXSXBXZXZXAXBXZX",
"FXDXZXZXmXCXCXxXxXCXCXDXJXJXJXDXFXBXMXsX*XW.$X=.%.4.2.m v 3 3 l %.>XzXyXB.) g.j.j.j.j.k.k.k.c.c.n.P.*XgXnXMXBXMXnXMXMXnXMXMXMXMX",
"AXZXmXmXxXxXxXxXxXCXZXJXJXJXDXDXBXfX&XP.@.@.+X$XV 4.4.V b 4 w V $X1XyXE.E T g.^ f.f.j.k.V.V.F.F.P.c.J.=XbXAXMXnXnXbXbXnXnXbXnXMX",
"ZXxXvXvXvXxXxXvXcXZXZXMXDXPXJXbX=X XD.D.P.M.E.LX*.7.1.N V e x 4XtX#XM.! ~ ~ ! R ( [ g.k.V.A.A.A.S.P.S.P.XXfXcXbXfXcXsXcXfXcXnXnX",
"NXcXvXvXvXvXvXxXcXbXZXBXKXnXpXXXP.D.F.F.D.n.^.KX3X7.4.%.n %.3X4X@.@.[ f.j.g./ ( E W / f.j.j.k.k.G.oXS.P.^.*XdXbXfXfXcXdXsXcXfXcX",
"mXcX;X;X;XvXvXvXcXcXnXnXKX-X/.P.F.F.D.D.D.n.M.wXIXlX,XOX-.OX~.} I [ x.c.k.j.~ ! R ! f.j.j.j.k.l.N.iXP.m.N.P.pXfXgXgXpXsXgXdXdXgX",
"fXgX;X-X;X;XdXvXfXsXfXjXjX.XN.n.H.D.F.D.D.n.[ L.0XlXOXo.&.U.Q Q [ [ x.k.j.j.f.~ / g.f.j.V.V.C.v.) B.J ^.wX(.(.&X-X-X-X-X=X-X=X-X",
"gXpX-X&X&X=X-X:XpXgXjXgXiXP.n.H.k.k.k.k.F.D.g.] X.X.X.X.H _ h.g.R R f.j.V.Z.C.l.l.g.j.j.V.Z.C.h.Q OXIXIXLXwX/.*X*X*X%X%X%X%X%X%X",
"eX&X&X%X%X%X%X%X*XpXgXgXXXH.v.S.v.k.A.k.k.c.k.x.z._ X.K.z.g.k.~ g.g.j.C.Z.F.S.S.A.C.k.V.C.C.k./ S R.LXLXLXiXT.^.#X%X%X%X.XI.I.I.",
"#X#X'.(./.I././.(.XX*XiXN.H.S.v.G.S.D.F.k.c.k.z.z.K.K.K.F.F.F.F.b.n.G.C.S.F.F.C.S.S.C.C.C.k.k.( Q D Y.wX*X..m..XI.I.I.I.L.M.@.@.",
"W.E.W.W.U.L.@.@.U.R.].XX( J.H.l.G.l.D.F.A.F.A.l.f.l.l.C.Z.F.F.F.g.h.l.z.j.C.S.G.S.G.G.G.k.~ ~ W G H Q Q M.^.wXXXL.M.L.@.@.I I L ",
"@.O.@.O.@.I I L P }  . .x.x.v.S.C.G.S.l.A.F.S.k.k.c.g.k.k.F.|.F.b.x.W h.h.b.S.k.G.v.l.g.^ R R R T ^.XXXXXX.XP.(.P...K L g i 1 h ",
"g g I g h h h u u d P ' ] x.b.v.l.l.l.A.V.c.c.v.v.v.v.c.F.F.F.c.x.B.^.(.XXm.h.b.b.l.h._ W E E W ! J. XJ.J.G.b.L.L.' s f u % & 3 ",
"> > u 1 > > > > u y s J  .m.v.k.S.k.g.v.G.S.v.v.D.n.c.c.c.c.c.n.B.XXyXjXKX(.B.G.b.g.( H H S S H T k.k.g.l.h.) m.L.P y - & & & e ",
"# : > > > $ > > 1 y s F ..m.c.g.l.g.l.b.G.b.x.c.S.c.c.c.c.c.c.N.].yXkXqXLX*XN.h.g./ W H a p p S T g.g.f.h.x.]  .| F - @ & & e e ",
". #   $ $ $ $ > * - y s J [ g.g./ b.b.b.h.h.x.b.n.c.c.v.v.l.S.N.qXVXyX`.kX@XL.m.g.( W S a p s D ( h.h.h.x.] ' ' } g - . & e e e ",
"O   . $ $ $ $ $ * * f F J [ g.g.g.x.x.m.N.P.P.H.v.D.F.D.D.G.b.m.yXkXlX3XzXQ. .h.^ R H A p t f D Q _ W W H K F F U d - X % 5 e q ",
", . #   # $ $ $ . * f F J ( h.c.x.n.N.^.(..X^.H.v.S.A.A.S.G.A.K.].OXyX1X!.I H G T T H A t r t s D S A D a a d f z i > X $ < < q ",
"*     $ $ # $ $ . ; y s W ) x.x.x.I.iXiXXXP.m.b.x.c.g.f.z.h.B.` ` ].Q.#.s p E G ! ^ E D p t r y s t d d y y g g U i > $ $ 1 9 j ",
"- .         . *   * y F H ( [ x.[ ^.KXXX) m.S H G S H ] Q ..H H A S H E ( ( ( / ~ ^ _ Y A t = X @ ; ; f i i h z +.z X $   ; 0 7 ",
"y ; o   o . * * X * y F H [ W W ( M.P. .W S H K D ' P { K a P a H W / g.g.g./ / / ^ z._ S t - X @ o ; i c i g L O.B $ # X ; 7 2 ",
"- . $     . * * X X t J E ( R H Q ] [ Q S H ' S ' Q  .{ { T.).L.Q ) z.z.g.f.g./ / / ^ E S p = X @ ; d F F L X.X.} @.j $ * ; O & ",
"- . $     . - * : > t P W ) R H H ] ..H H J ' { ).Q.F } J { '.R.Q Q / g.g.k.g.) / ^ ^ E H a = X ; ; F X.X.' m.K. .L.I > = .   & ",
"- * $   $   * - > - t J E h.W E S ..S S  .{ X.wX} | Q.0X`.<X_.OXK _ ( ~ f.g.g.g.! ! ! T H s - X ; d K _ ` K.C.G.b.^.} = = - X o ",
"- * X $ X X = - X - t J G ) R E H K a { | { ).].&.R.| Q.R.&.).OXE W ^ f.f.f./ / ! ! ^ E H a = X y D _ _ z.z.G.|.G.J.M.p t r X $ ",
"- *   $ X > - > - y s J E / R E A t p { K | wX&._.Y.Q.L | &.&.).K _ ^ ^ f.~ ! ! ! ^ / _ H a = - y D _ z.h.l.Z.Z.G.G.B.D A p = - ",
"d i < < 1 i d f u u K { E / R H D r t t | T.Q.kX0XqXkXX.&.&.T.).H E ^ ^ / f./ ( ! / h.) H p = = t S _ z.h.l.Z.Z.|.C.P.R Y G A a ",
"+.B B B +.+.O.O.O.O.&...( h._ G F r r p s | &.Q.X.| `.&.F &.~.<XQ G ) z.z.T ^ x.x.( ! R H A y y a G ^ z.g.h.A.F.V.G.x./ ^ f.T ^ ",
"=.=.=.$.=.=.Y.U.=.=.Y...R ) ( H p r r t d d X.F F T.Q.{ F X.| 0X).Q T ^ ^ l.! ( ! R T T G A t y a H ^ ^ ( ( l.c.A.G.b.g.j.j.j.j.",
"!.!.$X$X$X+X+X$X+X$X#XL._ ^ _ H t y = r F p F p F Q.yXyX0X&.| P qXR.E ^ ^ N.R Y R T T ^ E S t t A G ( ^ W ( x.x.G.H.b.S.Z.[.[.[.",
"<X1X4X>X1X4XwX4X1XwXwX(.K.) E S r = r = d s F | qX`.Y.| wXQ._.P ].XX` K.) x.G R R ! ~ ~ R S p p A E ( ( W W g.g.b.H.H.|.[.{.[.[.",
"tXtX3X3XtXuXtXtXtXtXhXXXB.) G A y = = r r d F ]...Q.'.{ '.P E.E.J qX` ) z.T G ( ( ! g.z.R H a a S W h./ R W g.g.V.J.|. X{.{.}.}.",
"yXhXuXuXuXhXhXhXuXuXhX'.m._ G D t = r s d F { ).R.T.kXT._.P T.| ..qX) _ ) G G W ( / f./ T G a a H ) K.z.W ! g.g.V.F. XoX{.{.}.}.",
"kXkXuXuXzXkXkXhXHXHXhX].` _ G D r = = f | P ].Y.'.R.qX).J J Q.J OXXXQ E ( R R R R ( g.f.^ H A D H K.G.h.^ / j.j.Z.Z.|.oX{.}.}.}.",
"kXkXUXzXHXVXBXNXHXHXhX)._ _ G D r f = y Y.F 0X..).{ ..{ Q _.).P yXM.K G R Q W ( ( g.g.z.^ G A A K m.B.l.^ / j.j.Z.Z.|.oX{.}.}.{."
};
