/* XPM */
static char *_c2641147f8b48c1b44e91e90fca15efomRHfGEJS7ONmmPo[] = {
/* columns rows colors chars-per-pixel */
"64 64 156 2 ",
"   c #0C0505",
".  c #0A0A0B",
"X  c #140706",
"o  c #150806",
"O  c #1B0A06",
"+  c #120708",
"@  c #140A0A",
"#  c #161514",
"$  c #1A1413",
"%  c #1D1817",
"&  c #1B1C1B",
"*  c #250E09",
"=  c #231714",
"-  c #291715",
";  c #231916",
":  c #2A1A16",
">  c #231E1C",
",  c #291E1C",
"<  c #361D19",
"1  c #391E19",
"2  c #27211E",
"3  c #2D221E",
"4  c #32231F",
"5  c #39221C",
"6  c #272422",
"7  c #2A2523",
"8  c #312521",
"9  c #382320",
"0  c #362D2F",
"q  c #372F31",
"w  c #392E30",
"e  c #373335",
"r  c #393235",
"t  c #3B3639",
"y  c #373A3A",
"u  c #3A3D3E",
"i  c #6D221E",
"p  c #74221E",
"a  c #7A261F",
"s  c #561E23",
"d  c #591E22",
"f  c #572021",
"g  c #592024",
"h  c #463B36",
"j  c #443D3C",
"k  c #483E38",
"l  c #5E3F3F",
"z  c #642526",
"x  c #6C2727",
"c  c #652728",
"v  c #642829",
"b  c #6D2A2C",
"n  c #762521",
"m  c #7D2621",
"M  c #7E2A26",
"N  c #722A2B",
"B  c #7C2D29",
"V  c #7F3525",
"C  c #75312E",
"Z  c #693935",
"A  c #623B39",
"S  c #723330",
"D  c #46403C",
"F  c #49423D",
"G  c #60413F",
"H  c #393F40",
"J  c #3B4143",
"K  c #3F4648",
"L  c #434547",
"P  c #4D4444",
"I  c #424749",
"U  c #474C4E",
"Y  c #4B4A4C",
"T  c #534546",
"R  c #5A4242",
"E  c #524847",
"W  c #514748",
"Q  c #504849",
"!  c #474E50",
"~  c #484E51",
"^  c #4A5254",
"/  c #4D5759",
"(  c #4F585B",
")  c #525151",
"_  c #585556",
"`  c #525B5E",
"'  c #615558",
"]  c #545F61",
"[  c #5A5E60",
"{  c #566164",
"}  c #566265",
"|  c #576366",
" . c #556164",
".. c #556164",
"X. c #576468",
"o. c #586568",
"O. c #59666A",
"+. c #5C6A6E",
"@. c #5E6C70",
"#. c #5F6D71",
"$. c #5F6E72",
"%. c #5F6D71",
"&. c #666C6F",
"*. c #606F73",
"=. c #606F73",
"-. c #617075",
";. c #627276",
":. c #637277",
">. c #627276",
",. c #6E7070",
"<. c #647479",
"1. c #737172",
"2. c #80261F",
"3. c #80261F",
"4. c #862D1C",
"5. c #852F1C",
"6. c #892E1D",
"7. c #8A2F1D",
"8. c #8E2D1C",
"9. c #932E1B",
"0. c #9C2E1B",
"q. c #9D2E1A",
"w. c #8C301D",
"e. c #8A301F",
"r. c #97301B",
"t. c #95301C",
"y. c #96311E",
"u. c #9F301B",
"i. c #A02F19",
"p. c #A12F19",
"a. c #A0301A",
"s. c #A2301A",
"d. c #A5331E",
"f. c #802722",
"g. c #832723",
"h. c #852722",
"j. c #842723",
"k. c #862722",
"l. c #852722",
"z. c #822823",
"x. c #832823",
"c. c #852823",
"v. c #872822",
"b. c #812925",
"n. c #812A25",
"m. c #822A25",
"M. c #882821",
"N. c #882921",
"B. c #892921",
"V. c #8A2921",
"C. c #882922",
"Z. c #892821",
"A. c #8E3423",
"S. c #893626",
"D. c #933120",
"F. c #9C3622",
/* pixels */
"U U U U U U I U U U U U I U I U I J ! U I I j M N b b #   m g.g.M Y U U U I U U U I U U K ! U K U U K U U K U K U U K J K J K U ",
"u H u u H u H H H u H H J H H H H H H H H H H b b N c #   n N b b H H H H H H H J u J y J J u J J H H J J u J u J J J u J J u J ",
"H H J y y y y y y y u y u y u u H y u H H H H b b N d $   n N N b H H H y y y y y y y y y y y y u y y u u u y y y y u J J J J y ",
"H J y y 3 3 3 3 3 3 0 7 q q q e q q e H H H j b b N c #   m N b b H H t 3 3 3 , 3 3 3 3 3 3 3 3 0 7 0 e q q 7 3 2 0 q u H y J J ",
"H H y 3 r u H H H H H H H H H H H H H H J H j b b N s $   m N b b j y 4 q H H H H H H H H H H H u u H H H H H H H H J J J J J y ",
"H H y 3 J u H J H H H H H H H H H H H H U J H b b b s $   m N N b H H , H H H H H H H H H H H u u J H H H H J J H H H J K J J J ",
"J J u 7 J J J J J J J J J J J J H H J J U J j b N N d $   g.N N b H H 3 H H H H H H J J J J H J J J J J J J J J J J J J ! K J J ",
"K ! K q I U U I ! K U K U U ! K U U U ! ` U P M j.b.b , # 0.j.g.M Y U q ! I U ! U U U I U U U U K U U U K U U K K K ! K ` ! K K ",
"J J u 8 J J J J J J J J J J J J J J J J U J L b N N g $ + 3.N N b j H 8 H H H H J H H J J J J J J J J J J J J J J J J J U J J J ",
"U ~ I r U U U U U ! U U U U U U ~ U U ^  .~ Q z.c.z.x 2 $ p.V.k.n.~ ! H U U ~ ~ ~ ! ~ ~ U U U U U U U U U U U U ! ! ! U } ~ ~ ~ ",
"U U I r U ~ U U U U ! U U U U U U U U / %.^ W z.c.g.x # X i.k.k.b.Y ! J ! ! ! ! ! ! Y ! U ! U ! U ~ U U U ~ ~ U ! ! ! ! -.^ ! U ",
"U ~ I r U U ~ U ! U U U K ! U U ~ U U ^ ] ~ Y z.l.g.x $ X i.k.l.b.Y ! ! ! ^ ~ ~ ^ ^ ^ ^ / ^ ~ U U U ~ U U U U U ! ! U U X.~ ! U ",
"U U I r ~ U U U U U I U %.U ! U U U ~ ^ *.~ Y z.l.g.b , = u.4.l.n.~ ! ! ~ ] ] ] =.X.-.-.:.-. .^ U U U U ~ U U U U U U U ;.^ ~ ~ ",
"U ~ Y r U U U ! U L u ] ! U U ! ! U U ^ *.^ W z.l.c.b 7 = p.k.l.g.Y ~ ~ ! U Y ~ ! ! ! ! ! ! ! ] ^ ~ U ~ U U U ~ U ~ U ~ ;.^ ! U ",
"U U I r U ~ U U L t ( ~ U U U ! ~ U ~ ^ *.^ Q M g.g.b , = q.6.l.b.T Q Q W Y W Y W Y Q Q Y Y ~ ! ` ^ U ~ ~ U ~ U ~ U U U <.^ U U ",
"~ U U J U ! U Y r k ! U ! ! U U U U ~ ^ *.~ Q g.l.g.b % % 0.l.l.c.b.b.n.g.g.z.n.z.z.z.z.z.Z W Y ^ ( ^ U U U U U ! U U ~ ;.^ U ~ ",
"U U U J U U U U F F ~ ~ ~ U ~ U U ~ U / #.~ E n.l.c.b , = u.C.v.v.v.v.v.l.l.l.l.l.l.l.l.c.x.M W U ^ ` ^ U U U U ~ U ~ ~ :.^ ~ ~ ",
"~ U U U U ^ ^ U F P ^ ^ ^ ~ ^ / ^ ^ / o.#.~ Q n.l.l.m % % t.C.C.C.C.C.C.C.k.C.l.k.l.l.g.c.c.z.Z U U ~ ` ^ ^ / ^ ^ / ^  .-.^ ~ U ",
"U ~ U ~ ^ ` ` ` _ ' +. .#.{ #.;.-.;.#.#.^ U Y V v.x.b 3 % 5.w.w.w.w.w.w.8.a 6.n 4.a p g.c.l.c.M Q ~ U ~ ` %.*.*.*.*.*.-./ U U U ",
"U U U U U ~ ^ U F U ~ ~ ~ ~ ~ ~ ~ ~ ~ ^ ^ U U R D.v.m 9 2 3 4 4 3 4 3 3 3 ; 3 % $ $ @ s B c.n.B Q U U U U ~ ^ ^ ^ ~ ^ ~ U U ~ U ",
"U U U U I Y I L k k I U I U U U U U U U U U P A.C.l.g.x 9 9 9 4 4 4 9 4 : 8 & 7 & & # . j S l B Q U U I I Y I U U U U U U ~ U U ",
"U U U L r r r r 4 4 t J t J H H J J J U U U _ B l.l.l.g.m m m m m.m m m m N T I I u &   J Y S n.Q U Y t r r r J H J J U U U ~ U ",
"~ U I r J U U Y D D U U U U U U U I U U K U Y A z.l.l.l.v.v.l.l.l.l.v.v.z.R S P U K & . K Y T C Q U r I U U U U U U Y ! ~ ~ U U ",
"U U I r U U U U I D U U U U U U U K I K I ~ U Y B v.l.l.l.m.v.v.l.l.l.l.l.B R C Y J # . ^ U S T U U r I ! U U U U U ~ U ] ~ ~ U ",
"~ U Y r U U U U F U U U U U U U I ( K I K ] ~ U U A n.n.n.n.n.m.z.z.z.z.z.z.B E U I & . ^ ~ W C Q U r I U U U U U U ! U ] ~ U U ",
"U U I r ~ U ~ U Y F U U U U U U O.K K U +.^ ] U ~ U Q U Y Y Y Y Y U Y Y U Q n.B Y H # . ^ ^ S W U Y r I ~ U ~ U ! U U !  .^ ! U ",
"U U U J U U U ~ U U U U U U U +.^ U K ( ^ U ^ ] U U U U Y I U U U U ~ U ~ Y B Q U H & . X./ W C Q U r I U U U ~ U U U U -.^ U ~ ",
"~ ~ I r ~ U U U U P U U U ^ ( ^ U J U ~ U U U U H r r q r r r H J J U U ~ ~ T S U H & . X.^ C W U U r J U ! U U U ! ! U  .^ U U ",
"U U U J U U U U U U U ~ U U ~ U U U U ~ U U U ~ U U U U I U U U U U U ! U Y S Q U u # . X.^ Y U U I r ( ^ U U ~ U ~ U ~ -.^ U U ",
"~ U I r U U ~ U U U U U U ~ U U U U U U ~ U U U U U ~ U U U ~ U U U ! ] ~ Y Q ~ U H & # ( ~ ! U U K I ~ U U U U U U U U -./ U ~ ",
"U ~ U J U U U U U U U ~ U U U U U ~ U ~ U ~ U ~ U U U U U U U U U U ~  .^ Y N Y U H 6 & X.^ ! U K X.j U U U U U ^ U U U -./ U U ",
"U U I r ~ U ~ U U U U U U ~ U ~ U U U U U U U U U U ~ U ~ U ~ U U ! ~ ] ! ! Y ~ ! H & 6 ( ^ ! ! ( U I U U U U K +.^ ~ U -.^ U ~ ",
"U U I r U U U U ~ U ~ U ~ U ~ U U U U ~ U U U U ~ U ~ U ~ U ~ U U ~ ~  .~ U U U U J 6 & / ^ U U I O.I U U U L ` ^ U ~ U { ^ ~ U ",
"U ~ I r U ~ U ~ U U U U U U U U U ~ U U U U U U U U U U U U U U U U ^ -.^ U Y ~ U I & 6 ( ~ ~ U ` ^ J U U r / ~ ~ U U U ;.^ U U ",
"~ U Y r ~ U U U U ~ ~ U U U ~ U ~ U U u q q t U U U U U U U U U ! U ^ -.~ Y C Y U J 6 & ^ ^ U C Y U J U w k U U U U U U <.^ ~ U ",
"U U I r U U ~ U U U U U U ~ U U ~ I u w k D H J U ^ ~ ~ ^ ^ ~ ^ ^ ^  .-.^ U Y U ^ K 6 6 ( ~ U Y U U J I F F U ~ U ~ U ~ ;.^ U U ",
"~ U U r U U U U U U U ~ ~ U U U ~ u r D F Y U J } -.;.;.;.;.;.;.-.-.-.^ U Y C R C P 7 6 / ^ U C Y U J U F Y U U U U U U ;./ U U ",
"U U U u ~ U ~ U ~ U U U U U U / o.t k F U F U U  .^ ^ ~ ^ ^ ^ ~ ) ~ ^ U U U T S Q I > 6 / ^ U Y U U J I U F U U ~ U ~ U ;.^ U ~ ",
"~ U I r U U U ~ U ~ U ~ U U / +.~ r h D F E ) &.[ Y U Q Y Y Y Q S.j Y Y Y Y C R C P 7 6 I U Y C W I J U F I U U U U U ~ <.^ U U ",
"U U U J ~ U U U U U U U U / +.^ U P G Q E G u.F.n.n.n.M n.n.c.w.z b B n.z.B R C Y U > 3 L Y C T U U J U U U ~ U ~ U U ~ ;.^ U ~ ",
"U U U J U U U U U U ~ U ^ *.^ U Q c.d.d.d.y.C.k.l.l.l.k.C.9.9.O d g.l.l.c.c.B W ~ U 6 7 P S R C Y U J U U ~ U U U U U ~ -.^ U U ",
"U ~ U U U ~ ~ ^ ~ ^ ^ / +.^ ~ Y A c.C.C.8.k.k.C.C.C.k.9.9.* - $ c g.g.l.C.z.R S Y I & 3 S.R C M Q U U U ~ ~ ~ ~ ~ ~ ~  .;./ U U ",
"U U U U ^ `  .*.*.*.-.+.^ U U Q V g.l.l.l.m g.9.y.q.9.* : ; # & : z x m 9.m N P I u 7 8 w.n.x.B Q U U ~ (  .` &.-.;.-.-.( ^ U ~ ",
"U ~ U ~ U ^ ^ ^ ^ / ^ ^ U ~ U Q z.v.l.g.z - : 4 5 : 5 > > $ 2 % > + + X o o = & 7 7 7 8 m l.v.z.Q U U ~ ~ ~ ^ ^ ^ ) ^ / U U U U ",
"U U U U U U U I U U U U ~ U U Q z.l.l.n =   $ 3 % 3 7 3 % , ; , % $ $ $ $ @ $ , ; 3 8 v M l.l.z.Q U U U U U U U U U U U U U ~ U ",
"U ~ U I r r r t J J J J U U U W z.l.l.p $ + i n n m n m n m n n n n n n n n n m n n n g.l.l.l.z.Q U U U t r r J J J J U U U U U ",
"~ U U r H I I Y U U U U U ~ U Y z.z.g.z $ X m l.l.l.l.l.l.l.c.l.l.l.l.l.l.l.l.l.l.l.l.l.l.l.g.Z U ~ U t L I I U U U U U ~ U ~ U ",
"U U I r U U ! ! ~ I U U ^ ` ^ Q z.x.g.n $ O 4.v.l.l.l.l.l.l.c.c.l.l.l.l.l.l.l.l.l.l.l.l.l.l.B W U I t L U U U U U U U ~ ` ^ U U ",
"~ U I r ~ U U U I r L U ^ ] U Q n.x.x.c $ X 3.l.l.l.z.z.g.M z.z.n.n.n.z.n.n.n.m.n.z.n.m.B Z P U I t L U ! U U U U ~ U U  .~ U U ",
"U U Y r U U U U r D ^ ` ^ ] ^ Q z.x.x.c # O 9.k.l.x.T Q Q W Y W Q Q Q Q Q Q Q Q Q Q Q Q Q Y U U j L U U U U ~ U U U ~ U  .^ U U ",
"U U U H U ! U U J ^ -.] ^ -.^ Q z.x.z.c $ O 0.k.x.z.Y ~ ! ! ~ ~ U U U U U ~ U U ~ U U U U U U J I U U U U ~ U U U U U U -.^ U U ",
"U U U r U U U ~ ~ ` ^ ^ ^ -.U Q z.c.z.v , - q.3.x.z.Y ! Y t q q r r r r r r r H r H J J J J J U U U ~ U U U ~ U ~ U ~ U  .^ ~ U ",
"U U U u ! U U U U ^ U U / -.^ Q M c.g.c $ O p.k.x.z.Y U q y I I I Y I I I I U U U U U I U U U U ~ U U ~ U U U ~ U U U U -.^ U U ",
"U ~ U J ! U U ~ U U U U / -.^ Q z.c.z.v , - 9.k.x.n.Y U q U ! U ~ U U ~ U ~ U U U U U U U U U U ~ U U U ~ U U U ~ U ~ U -./ U U ",
"U U U J U U U U U U U ^ ^ -.U Q n.c.z.c $ O q.4.C.n.Y U q Y ! U U ~ U U U U U U U U ~ U ~ U ~ U U ~ U ~ U ~ U ~ U U U ~ -.^ U U ",
"U ~ I r U ! ! U U U U U ^  .^ Q z.c.g.s , = g.l.c.z.Y ! r ~ ! ! U U U ~ U ~ U ~ U ~ U U U U U U U U U U U U U U ~ U U ~ -./ ~ U ",
"U U U u U ^ U U U ^ U ~ ^ -.^ Q n.c.g.c , - 8.k.l.z.Y U H U U ! U ~ U U U U U ~ U ~ U ~ U U ~ U U U U U U U U U U U U U ;./ U U ",
"U U U J U U U U U U U U / -.^ Q g.l.M s , ; g.l.l.m Y U J U U U U U ~ U ~ U U U U U U U ~ U U U ~ ~ U ~ U ~ U ~ ~ U U U ;./ U U ",
"U U U J U U U U U U U U ^ <.U Y M c.m s % ; m l.l.z.Y U J U ! U U U U U U ~ U ~ U U U U U U U U U U U U ~ U U U U ~ U U -.^ U U ",
"U U U U U U U U U U U ^ | -.~ Q g.j.m s , ; m c.z.z.Y U U U U ! ~ U ~ U U U U U U U U U U ~ U ~ ~ U U ~ U U ~ ~ U U U ] <./ U U ",
"U U U U ^  .]  .| -.-.-.-./ U Q n.c.M d % = m l.x.n.Y ~ U ! ]  .] ] ]  .-.-.<.-.;.X.-.} -.-.-.-.-.-.-.<.-.-.-.-.<.-.-.-.` ~ U U ",
"U ~ U ~ U ^ ^ U ^ ^ / / ^ U U Q z.c.m d , = m l.x.z.Y ~ ! U ~ ~ ^ ~ ^ ~ / ^ ^ / ^ ^ ^ ^ ^ ^ / / / ^ ^ / ^ / / ^ / ^ / / U U ~ ~ ",
"U ~ U U U U U U U U U U U U U Q z.c.M s 7 < M l.x.z.Y ! ! U U U U U U U U U U U U ~ U U U U U U U U U U U U U U U U U U U U 1.^ ",
"e 3 8 8 4 7 8 e 9 w 8 r r r r w 1 < < ; # # - < - ; & & q > w r r r r r r r r r 8 w 8 r r 8 r 8 w 8 8 8 4 7 4 e 8 w 8 e r r t 1."
};
