/* XPM */
static char *_406129696f9495ac204abbf4e2fe06e08IHPkGzJO5WFJSd[] = {
/* columns rows colors chars-per-pixel */
"10 64 123 2 ",
"   c #060100",
".  c #0B0602",
"X  c #0E0903",
"o  c #110C06",
"O  c #1B1612",
"+  c #1F1B12",
"@  c #211C16",
"#  c #221D19",
"$  c #25201B",
"%  c #29251E",
"&  c #2E2923",
"*  c #302B27",
"=  c #35302D",
"-  c #3B362E",
";  c #3C3733",
":  c #3E3936",
">  c #483D2B",
",  c #423D35",
"<  c #423D3A",
"1  c #50412E",
"2  c #464030",
"3  c #4D4736",
"4  c #474836",
"5  c #4C4935",
"6  c #46423D",
"7  c #4B453D",
"8  c #47483A",
"9  c #4C4B3D",
"0  c #534535",
"q  c #534B35",
"w  c #54473B",
"e  c #524C3C",
"r  c #5B4D3D",
"t  c #56513E",
"y  c #59523E",
"u  c #61523D",
"i  c #443E42",
"p  c #474143",
"a  c #4A4543",
"s  c #4E4B44",
"d  c #4C464B",
"f  c #4D494C",
"g  c #534D44",
"h  c #594E41",
"j  c #524D4A",
"k  c #584F48",
"l  c #535044",
"z  c #5B5244",
"x  c #5B5847",
"c  c #55524C",
"v  c #5B554B",
"b  c #5E5B4B",
"n  c #4C4650",
"m  c #4C4954",
"M  c #4C4951",
"N  c #524B53",
"B  c #544E52",
"V  c #534D52",
"C  c #584F52",
"Z  c #575651",
"A  c #575652",
"S  c #5A5551",
"D  c #595552",
"F  c #5A5552",
"G  c #5B5653",
"H  c #5C5754",
"J  c #5A5551",
"K  c #5D5855",
"L  c #5E5956",
"P  c #5F5A57",
"I  c #5F5B52",
"U  c #605543",
"Y  c #625544",
"T  c #655545",
"R  c #675747",
"E  c #635844",
"W  c #645945",
"Q  c #685C46",
"!  c #6D5E47",
"~  c #675748",
"^  c #625D49",
"/  c #615E4E",
"(  c #6C5F4C",
")  c #6E5E4E",
"_  c #6A5B48",
"`  c #605C50",
"'  c #605B58",
"]  c #66614B",
"[  c #6F6049",
"{  c #6E624C",
"}  c #71654F",
"|  c #646154",
" . c #66615E",
".. c #67625F",
"X. c #66615B",
"o. c #6A655D",
"O. c #706350",
"+. c #766750",
"@. c #726E53",
"#. c #716D54",
"$. c #796B51",
"%. c #786952",
"&. c #7A6B57",
"*. c #7D6D5E",
"=. c #7B775A",
"-. c #7C785D",
";. c #7E7A5D",
":. c #7E785E",
">. c #6D6865",
",. c #6E6966",
"<. c #6F6A67",
"1. c #6F6A64",
"2. c #716C69",
"3. c #746F6C",
"4. c #716C69",
"5. c #75706D",
"6. c #757168",
"7. c #85775D",
"8. c #867760",
"9. c #867762",
"0. c #877861",
"q. c #887962",
"w. c #887B6A",
/* pixels */
"3.>. . .4.5.3.4.,.4.",
"' G c J H ' ' G ' G ",
"j j j j j j j j j d ",
"j j D J j j j j a < ",
"p s j k j d g j a < ",
"6 a d j s g d j j a ",
"s s d j d g j j k j ",
"j j s s g d s s a j ",
"p < : < 6 7 6 p < s ",
"s < : < < p < p < s ",
"s < < < p < < < a s ",
"j p , < < < : : d j ",
"j < : : : : ; : j j ",
"g < : : : : ; : j j ",
"j p : : : : , < j d ",
"j p : : < , , < j g ",
"M f a 8 8 8 8 8 Z l ",
"M f a a 8 4 8 8 Z l ",
"M M s a 9 8 8 9 Z j ",
"m M f s 9 9 9 s Z j ",
"M M M s l 9 l 9 A j ",
"M M f s s 9 l l A V ",
"M M M l l 9 8 l G j ",
"M s s l l l 9 s G j ",
"m i A c 9 t 9 l H j ",
"M 8 j l 9 t 9 l A c ",
"D a s l t x q z G j ",
"j 7 l 9 ^ ] q t v k ",
"j 7 e y @.@.q t v k ",
"g 7 5 y -.-.q t v k ",
"w 3 3 q ;.;.q t x g ",
"g 7 , q -.;.5 t v g ",
"i j , h w.} > g c l ",
"j k 7 U *.) 0 e c M ",
"j J k k R T r e j j ",
"j j z r 0 r E 5 l j ",
"j a z z 1 u [ 5 l j ",
"j a z Y q [ +.t l l ",
"j 3 e E [ +.@.t s l ",
"j 8 0 E $.@.^ 4 l l ",
"s 9 3 q 7.7.q z l l ",
"s 9 3 r q.q.q r l l ",
"j 7 3 r 9.7.q q l l ",
"j 7 7 z &.7.q q l s ",
"d a h h T _ 0 k l l ",
"j < k h r r 0 U c f ",
"j < k h w r w h c j ",
"B i k k r z w w l j ",
"N d k k 7 e z e b 9 ",
"N i d j 9 g x t b e ",
"N i d j s k b x b t ",
"N d s j 9 l b v ] 9 ",
"N a d k s g / b | 9 ",
"d i d k g v | / | l ",
"d i j j j v | / | l ",
"k s j J l v ` v | l ",
"j j 4.>.o.6.1.o.o.x ",
"c a j k ' ' g 9 c g ",
"G ; % & c v & # - 7 ",
"g %   o a 7 o   @ - ",
", @   X p 7 .   O = ",
", % + % s j # # * : ",
", - < , a s : : < < ",
"- - j 6 = : : 6 : = "
};
