/* XPM */
static char *_4c3736d3e754e9ffc3ae7b3a15e2af1Bae0Dx8ReTFFx47K[] = {
/* columns rows colors chars-per-pixel */
"64 64 157 2 ",
"   c #4F4C41",
".  c #4A483D",
"X  c #3E4033",
"o  c #383C2E",
"O  c #37392B",
"+  c #393628",
"@  c #312E1F",
"#  c #181817",
"$  c #1C1C1B",
"%  c #282720",
"&  c #141413",
"*  c #211F1D",
"=  c #34392B",
"-  c #444737",
";  c #5C5D47",
":  c #67684F",
">  c #484539",
",  c #333223",
"<  c #5A5A43",
"1  c #2C2A1E",
"2  c #22211C",
"3  c #1D472C",
"4  c #306A21",
"5  c #232420",
"6  c #31342A",
"7  c #2C3523",
"8  c #313D20",
"9  c #B8D852",
"0  c #27582E",
"q  c #FCEC57",
"w  c #767756",
"e  c #4B4F3A",
"r  c #656749",
"t  c #8A9754",
"y  c #3D5134",
"u  c #4C9043",
"i  c #3C7642",
"p  c #A5B560",
"a  c #46442F",
"s  c #5C5B48",
"d  c #61614C",
"f  c #3F3D2B",
"g  c #407D43",
"h  c #EBE756",
"j  c #C9DD54",
"k  c #488A43",
"l  c #161615",
"z  c #2B2C23",
"x  c #43823E",
"c  c #9DC64F",
"v  c #CCCF52",
"b  c #99C04E",
"n  c #D0D552",
"m  c #25251F",
"M  c #616248",
"N  c #7E8951",
"B  c #1B1B1A",
"V  c #234728",
"C  c #313529",
"Z  c #595846",
"A  c #676C4A",
"S  c #1F1F1D",
"D  c #191918",
"F  c #3E7137",
"G  c #333122",
"H  c #323328",
"J  c #282923",
"K  c #353628",
"L  c #3B4E32",
"P  c #24241E",
"I  c #1E1D1C",
"U  c #322F20",
"Y  c #353426",
"T  c #555345",
"R  c #35412E",
"E  c #2C512E",
"W  c #19251A",
"Q  c #22331F",
"!  c #201F1D",
"~  c #4C4B3F",
"^  c #414434",
"/  c #3B3F30",
"(  c #474839",
")  c #545144",
"_  c #5A5B46",
"`  c #477B3E",
"'  c #545B3B",
"]  c #909B59",
"[  c #316634",
"{  c #4C4E3C",
"}  c #5D5C49",
"|  c #67A247",
" . c #5B8F46",
".. c #78A748",
"X. c #6C9448",
"o. c #585946",
"O. c #404234",
"+. c #434536",
"@. c #4E4B40",
"#. c #4B493E",
"$. c #60604A",
"%. c #5D5E48",
"&. c #47463A",
"*. c #434337",
"=. c #373526",
"-. c #23231D",
";. c #514E42",
":. c #525043",
">. c #454236",
",. c #343324",
"<. c #4B493D",
"1. c #505040",
"2. c #5F6047",
"3. c #4C493D",
"4. c #2D3126",
"5. c #1C1E19",
"6. c #2E3227",
"7. c #4D4A3F",
"8. c #4D4B3C",
"9. c #535541",
"0. c #4D4A3E",
"q. c #413E30",
"w. c #4B483C",
"e. c #3D3C2D",
"r. c #4D5337",
"t. c #7B854F",
"y. c #464335",
"u. c #191917",
"i. c #1A1A19",
"p. c #383A2D",
"a. c #383A2C",
"s. c #404134",
"d. c #49463B",
"f. c #383527",
"g. c #3B382A",
"h. c #3E3B2E",
"j. c #4B483B",
"k. c #393627",
"l. c #272520",
"z. c #2C3025",
"x. c #303328",
"c. c #424036",
"v. c #464338",
"b. c #3E3C33",
"n. c #38352A",
"m. c #3A372D",
"M. c #423F32",
"N. c #353225",
"B. c #413E36",
"V. c #3F3C2D",
"C. c #171716",
"Z. c #1A1916",
"A. c #25231A",
"S. c #151514",
"D. c #2A281D",
"F. c #1E1D1B",
"G. c #24231E",
/* pixels */
"          . X . X . X . o o O +             o   o   o   o o o @ # $ $ % $ $ $ # $ % $ % $ $ % % $ # # $ $ $ % $ $ $ $ $ $ $ # & ",
". o o o o o o o o o o o o o O + . o o o o o o o o o o o o o o @ $ * $ % & % % % = % = % % % % % % % % % % = % = % = % $ $ * % $ ",
". - ; o o o o o o o o o - ; O + . - ; o - : : : :   o o o : o @ $ $ % # = & & & & & & & & & & & & & & & & & & & & & & % $ $ $ $ ",
"> , o o O @ @ @ @ @ , O , o O + > , o - < @ @ @ @ @ @ o @ o o @ $ $ $ % & & & & & & & & & & & & & & & & & & & & & & & & = $ & $ ",
". o o O @ @ @ @ @ @ @ , o o O + . o - < @ @ @ @ @ @ @ @   o o @ $ $ % & & & $ $ $ $ $ $ $ $ $ $ $ $ $ $ $ $ $ $ $ $ & & & = $ $ ",
". o O @ @ 1 $ $ $ 2 @ @ , o O + . - < @ @ @ 3 4 4 3 @ @ @   o @ $ $ % & & $ $ % = = = = = = = = = = = = = = = = % $ $ & & = * # ",
". o O @ 1 $ 5 o 6 $ 2 @ , o O + . - < @ 7 3 4 4 4 4 3 @ @ : o @ & $ % & & $ % & & $ & $ $ $ $ $ $ $ $ $ & $ & $ & % $ & & % $ $ ",
". o O @ 1 5 6 $ 5 6 2 @ , o O + . - < @ 8 4 4 9 9 4 4 @ @ : o @ $ $ % & & $ % & $ & $ $ $ $ $ $ $ $ $ & $ & $ & & % $ & & = $ $ ",
". o O @ 1 5 6 $ 5 6 2 @ , o O + . - < @ 8 4 0 9 q 0 4 @ @ : o @ $ $ % & & $ $ % = = = = = = = = = = = = = = = = % $ $ & & % $ # ",
"w   . o O , 6 $ 5 O , o X   . e w r t o y u i q 9 i u o o p   o # $ = & & & $ $ $ $ $ $ $ $ $ $ $ $ $ $ $ $ $ $ $ $ & & & % % $ ",
". o O @ 1 5 6 $ 5 6 2 @ , o O + . - < @ 8 4 0 9 q 0 4 @ @ : o @ $ % % & & & & & & & & & & & & & & & & & & & & & & & & & & = # $ ",
"w   . o O , 6 $ 5 O , o X   . e w r t o y u i q q i u o o p   o % $ % & & & & & & & & & & & & & & & & & & & & & & & & & & % $ $ ",
"w   . o O , 6 $ 5 O , o X   > a w r t o y u i q q i u o o p   @ $ $ % & & & $ $ $ $ $ $ $ $ $ $ $ $ $ $ $ $ $ $ $ $ & & & = $ % ",
"w   . o O , 6 $ 5 O , o X   . e w r t o y u i q q i u o o p   o $ % % & & $ $ % = = = = = = = = = = = = = = = = % $ $ & & = % $ ",
"w   . o O , 6 $ 5 O , o X   > a w r t o y u u q q i u o o p   @ $ $ % & & $ % & & $ & $ $ $ $ $ $ $ $ $ & $ & $ & % $ & & = & $ ",
"w   . o O , 6 $ 5 O , o X   . e w r t o y u i q q i u o o p   o & $ % & & $ % & $ & $ $ $ $ $ $ $ $ $ & $ & $ & & % $ & & = % $ ",
"w   . o O , 6 $ 5 O , o X   . e w r t o y u u q q i u o o p   o $ $ = & & $ $ % = = = = = = = = = = = = = = = = % $ $ & & = $ $ ",
"w   . o O , 6 $ 5 O , o X   . e w r t o y u i q q i u o o p   o $ # = & & & $ $ $ $ $ $ $ $ $ $ $ $ $ $ $ $ $ $ $ $ & & & % $ $ ",
"w   . o O , 6 $ 5 O , o X   . e w r t o y u i q q i u o o p   o % $ = & & & & & & & & & & & & & & & & & & & & & & & & & & % $ $ ",
"w   . o O , 6 $ 5 O , o X     s w r t o y u i q q u u o o p     # $ % & & & & & & & & & & & & & & & & & & & & & & & & & & % $ * ",
"d   . o O , 6 $ 5 O , o X   . - d r t o y u i q q i u o o p   o $ $ % & & & $ $ $ $ $ $ $ $ $ $ $ $ $ $ $ $ $ $ $ $ & & & % $ $ ",
"w   . o O , 6 $ 5 O , o X     s w r t o y u i q q u u o o p     # $ = & & $ $ % = = = = = = = = = = = = = = = = % $ $ & & % $ $ ",
"d   . o O , 6 $ 5 O , o X   . - d r t o y u i q q i u o o p   o $ $ % & & $ % & & $ & $ $ $ $ $ $ $ $ $ & $ & $ & % $ & & = $ * ",
"w   . o O , 6 $ 5 O , o X     s w r t o y u i q q i u o o p     $ $ = & & $ % & $ & $ $ $ $ $ $ $ $ $ & $ & $ & & % $ & & = % $ ",
"d   . o O , 6 $ 5 O , o X   . - d r t o y u i q q i u o o p   o $ % % & & $ $ % = = = = = = = = = = = = = = = = % $ $ & & = # $ ",
"d   . o O , 6 $ 5 O , o X   . - d r t o y u i q q u u o o p   o $ & = & & & $ $ $ $ $ $ $ $ $ $ $ $ $ $ $ $ $ $ $ $ & & & = $ $ ",
"d   . o O , 6 $ 5 O , o X   . - d r t o y u i q q i u o o p   o $ $ # = & & & & & & & & & & & & & & & & & & & & & & & & = $ $ * ",
"d   . o O , 6 $ 5 O , o X   > f d r t o y u i q q i u o o p   @ $ $ $ $ % & & & & & & & & & & & & & & & & & & & & & & % $ & $ $ ",
"d   . o O , 6 $ 5 O , o X   . - d r t o y u u q q i u o o p   o $ $ & $ % % = % % = = % = % % = % = = = % % % = % = % $ % $ * $ ",
"d   . o O , 6 $ 5 O , o X   > f d r t o y u i q q i u o o p   @ $ * $ $ $ & $ $ $ $ $ * $ $ $ $ $ $ % & $ * $ $ # * $ $ $ $ $ $ ",
"d   . o O , 6 $ 5 O , o X   . - d r t o y u u q q i u o o p   o $ $ * $ % $ $ $ $ $ # $ $ & $ # $ % $ $ $ $ * $ & $ $ $ $ $ % $ ",
"d   . o O , 6 $ 5 O , o X   > f d r t o y u i q q i u o o p   @ & $ $ $ * $ & $ $ $ $ $ * $ $ $ % $ $ $ $ * $ $ # & $ $ $ $ * $ ",
"d   . o O , 6 $ 5 O , o X   > f d r t o y u u q q i u o o p   @ # $ $ % $ $ $ # $ % $ % $ $ % % $ # # $ $ $ % $ $ $ $ $ $ $ # & ",
"d   . o O , 6 $ 5 O , o X   > f d r t o y u u q q i u o o p   @ $ * $ % & % % % = % = % % % % % % % % % % = % = % = % $ $ * % $ ",
"d   . o O , 6 $ 5 O , o X   > f d r t o y u u q q i u o o p   @ $ $ % # = & & & & & & & & & & & & & & & & & & & & & & % $ $ $ $ ",
"d   . o O , 6 $ 5 O , o X   > f d r t o y u i q q i u o o p   @ $ $ $ % & & & & & & & & & & & & & & & & & & & & & & & & = $ & $ ",
"d   . o O , 6 $ 5 O , o X   > f d r t o y u i q q i u o o p   @ $ $ % & & & 0 u u u u u u u u u u u u u u u u u u 0 & & & = $ $ ",
"d   . o O , 6 $ 5 O , o X   > f d r t o y u i q q i u o o p   @ $ $ % & & 0 u u i i u i i i i i i i i u u u i i u u 0 & & = * # ",
"d   . o O , 6 $ 5 O , o X   > f d r t o y u i q q i u o o p   @ & $ % & & u u 9 9 q 9 q q q q q q q q q q q 9 q 9 u u & & % $ $ ",
"d   . o O , 6 $ 5 O , o X   > f d r t o y u i q q i u o o p   @ $ $ % & & u u 9 q 9 q q q q q q q q q q q 9 q 9 9 u u & & = $ $ ",
"d   . o O , 6 $ 5 O , o X   > f d r t o y u i q q i u o o p   @ $ $ % & & 0 u u i u i i i i i i i u i u i i i i u u 0 & & % $ # ",
"    . o O , 6 $ 5 O , o X   > +   r t o y u i q q i u o o p   @ # $ = & & & 0 u u u u u u u u u u u u u u u u u u 0 & & & % % $ ",
"d   . o O , 6 $ 5 O , o X   > f d r t o y u i q q i u o o p   @ $ % % & & & & & & & & & & & & & & & & & & & & & & & & & & = # $ ",
"    . o O , 6 $ 5 O , o X   > +   r t o y u i q q u u o o p   @ % $ % & & & & & & & & & & & & & & & & & & & & & & & & & & % $ $ ",
"d   . o O , 6 $ 5 O , o X   > f d r t o y u i q q i u o o p   @ $ $ % & & & 0 u u u u u u u u u u u u u u u u u u 0 & & & = $ % ",
"    . o O , 6 $ 5 O , o X   > +   r t o y u i q q u u o o p   @ $ % % & & 0 u u i i i i u i u i i i i i i i u i u u 0 & & = % $ ",
"d   . o O , 6 $ 5 O , o X   > f d r t o y u u q q u u o o p   @ $ $ % & & u u 9 9 q 9 q q q q q q q q q q q 9 q 9 u u & & = & $ ",
"    . o O , 6 $ 5 O , o X   > +   r t o y u i q 9 u u o o p   @ & $ % & & u u 9 q 9 q q q q q q q q q q q 9 q 9 9 u u & & = % $ ",
"    . o O , 6 $ 5 O , o X   > +   r t o y u g h j k u o o p   @ l $ z & & x u c v b n n n v v v v v v v v c v b c u x & & = m $ ",
"    . o O , 6 $ 5 O , o X   > +   M N o y u k j h i u o o p   @ $ B = & & V x u g g u u u g g g g g g g g u g g u x V & & C $ $ ",
"    . o O , 6 $ 5 O , o X   > +   Z A o y u g h 9 g u o o p   @ S D = & & & V F F F F F F F F F F F F F F F F F F V & & & % $ $ ",
"    . o O G H 5 J K , o X   > +   M N o L x u c c u x o o p   @ P $ C & & & & & & & & & & & & & & & & & & & & & & & & & & % $ I ",
"    . o O G G O K U Y o X   > +   T ; o R E x u u x E o o p   @ D $ % & & & W Q Q Q Q Q Q Q Q Q Q Q Q Q Q Q Q Q Q W & & & % $ ! ",
"    ~ ^ o O , , , Y o / (   > +   ) _ ^ o o E ` ` E o o ' ]   @ B $ z & & W [ u k u k k k k k k k u k u k k k k u [ W & & % $ $ ",
"    ) _ ^ o o o o o / { }   > +     ) _ ^ o o o o o o ' ]     @ D $ C & & [ u |  ... .X.X.X.X.X.X...X...X.X. .X.| u [ & & z $ I ",
"      ) o.O.- - - +.( }     > +       ) _ - ' - ' ' ' ]       @ $ $ z & & u u 9 j h j q q q q q q q q q q h j h 9 u u & & = S ! ",
"@.#.      ) d $.%.}         > + @.#.    ) d ] d t ] ]         @ $ S C & & x u c v b n v v v v v v v v n n c v b c u x & & = P $ ",
"&.*.          #.*.          > =.&.*.            X             @ $ -.z & & V x u g g u g g g g g g g g u u u g g u x V & & = D $ ",
"*.  ;.:.#.          ;.:.#.@.>.,.*.@.<.1.2.            r .   3.@ $ l 4.5.& & V F F F F F F F F F F F F F F F F F F V & & 5.6.$ I ",
"#.7.8.9.X   @.#.  7.8.9.X 0.q.=.#.w.e.r.t.    .     > t o   y.@ $ $ D 6.u.& & & & & & & & & & & & & & & & & & & & & & u.6.i.$ ! ",
"*.> G p.*.  #.*.  > G p.*.@.>.,.*.> G a.s.    X     @ O X   3.@ $ $ i.$ % u.5.u.u.5.5.u.5.u.u.5.u.5.5.5.u.u.u.5.u.5.u.m S l I $ ",
"  d.f.g.0.        d.+ h.@.j.q.+   d.f.k.y.          + +   3.y.@ $ I l $ m -.6.m m 6.6.l.6.m m 6.m 6.C z.m l.m 6.P x.m $ m $ ! $ ",
"c.v.b.n.m.c.v.c.> > > > >.q.M.N.c.v.b.n.m.B.> B.> > > > > V.> @ $ ! I $ S l $ $ $ $ B ! $ i.$ B $ S m l $ ! I $ C.! $ $ $ $ S $ ",
"Z.A.S.S.S.Z.A.Z.D.D.D.D.D.D.D.A.Z.A.S.S.S.S.D.S.D.D.D.D.D.D.D.D.B B F.B G.B B B B B # B B S.B # B G.B B B B F.B S.B B B B B G.B "
};
