/* XPM */
static char *f11bf924fc894e07bf887f7810c24ef3bxcwm4ofW7lV7nc9[] = {
/* columns rows colors chars-per-pixel */
"64 64 121 2 ",
"   c #4F4C41",
".  c #383C2E",
"X  c #3E4033",
"o  c #4A483D",
"O  c #312E1F",
"+  c #37392B",
"@  c #1C1C1B",
"#  c #484539",
"$  c #1D472C",
"%  c #3C7642",
"&  c #2C2A1E",
"*  c #255332",
"=  c #1D2720",
"-  c #243325",
";  c #393628",
":  c #2C3523",
">  c #83A83C",
",  c #548740",
"<  c #344028",
"1  c #9AB839",
"2  c #61614C",
"3  c #719B3D",
"4  c #94B43A",
"5  c #353628",
"6  c #444737",
"7  c #3D3D30",
"8  c #333223",
"9  c #343325",
"0  c #767756",
"q  c #433B37",
"w  c #413F31",
"e  c #3A382B",
"r  c #333122",
"t  c #363729",
"y  c #49433B",
"u  c #403B31",
"i  c #434031",
"p  c #65933F",
"a  c #427A42",
"s  c #555345",
"d  c #4C493D",
"f  c #2D6033",
"g  c #464335",
"h  c #376F3D",
"j  c #57974C",
"k  c #383B2D",
"l  c #376D38",
"z  c #5D9E51",
"x  c #316537",
"c  c #303A24",
"v  c #27582E",
"b  c #67AB55",
"n  c #2F3923",
"m  c #478447",
"M  c #77AA4E",
"N  c #538B48",
"B  c #464639",
"V  c #95CA59",
"C  c #49483B",
"Z  c #4D4B3F",
"A  c #356B3D",
"S  c #67684F",
"D  c #82855C",
"F  c #4B493D",
"G  c #30452B",
"H  c #343829",
"J  c #414235",
"K  c #49483C",
"L  c #585946",
"P  c #5C5D47",
"I  c #2B5C36",
"U  c #2E3724",
"Y  c #535541",
"T  c #3C3F31",
"R  c #46463A",
"E  c #3F4134",
"W  c #4E4B40",
"Q  c #545144",
"!  c #2A3C27",
"~  c #4E4D3F",
"^  c #4C4A3E",
"/  c #4D4A3E",
"(  c #525043",
")  c #575645",
"_  c #514E42",
"`  c black",
"'  c #141413",
"]  c #151515",
"[  c #070707",
"{  c #161615",
"}  c gray2",
"|  c #36392B",
" . c #282720",
".. c #333529",
"X. c #2C2C23",
"o. c #1E1E18",
"O. c #181817",
"+. c #1A1A18",
"@. c #1D1D18",
"#. c #26241E",
"$. c #282620",
"%. c #21201A",
"&. c #303327",
"*. c #171715",
"=. c #2C2E23",
"-. c #1D1E19",
";. c #1C1C17",
":. c #24231D",
">. c #22211B",
",. c #26251F",
"<. c #22221C",
"1. c #1F1F19",
"2. c #0E0F0B",
"3. c #1B1B18",
"4. c #11110E",
"5. c #121311",
"6. c #1C1C1A",
"7. c #20201A",
"8. c gray7",
"9. c #191916",
"0. c #23221D",
/* pixels */
"                        .   X o                     .   .                                                               X o X o ",
". . . . . . . . . . . . . . . . . . . . . . . . . . . . . . . . . . . . . . . . . . . . . . . . . . . . . . . . . . . . . . . . ",
". . . . . . . . . . . . . . . . . . . . . . . . . . . . . . . . . . . . . . . . . . . . . . . . . . . . . . . . . . . . . . . . ",
". . . . . . . . . . . . . . . . . . . . . . . . . . . . . . . . . . . . . . . . . . . . . . . . . . . . . . . . . . . . . . . . ",
". . . . . . . . . . . . . . . . . . . . . . . . . . . . . . . . . . . . . . . . . . . . . . . . . . . . . . . . . . . . . . . . ",
". . . . . . . . . . . . . . . . . . . . . . . . . . . . . . . . . . . . . . . . . . . . . . . . . . . . . . . . . . . . . . . . ",
". . . . . . . . . . . . . . . . . . . . . . . . . . . . . . . . . . . . . . . . . . . . . . . . . . . . . . . . . . . . . . . . ",
"o o o o o o o o o o o o o o o o o o o o o o o o o o o o o o o o o o o o o o o o o o o o o o o o o o o o o o o o o o o o o o o o ",
"X X X X X X X X X X X X X X X X X X X X X X X X X X X X X X X X X X X X X X X X X X X X X X X X X X X X X X X X X X X X X X X X ",
"o o o o o o o o o o o o o o o o o o o o o o o o o o o o o o o o o o o o o o o o o o o o o o o o o o o o o o o o o o o o o o o o ",
"                                                                                                                                ",
"                                                        . O O O O O O . o                                                       ",
"                                                    . O O O O O O O O O O + o                                                   ",
"                                                  O O O O @ @ @ @ @ @ O O O O #                                                 ",
"                                                O O O @ @ $ % % % % $ @ @ & O O #                                               ",
"                                              O O O @ $ % % % % % % % % * = & O O #                                             ",
"                                            . O O @ $ % % % % % % % % % % * = & O + o                                           ",
"                                            O O @ $ % % % % % % % % % % % % * = & O #                                           ",
"                                        X . O O @ % % % % % % % % % % % % % % - & O + .                                         ",
"                                        ; O O O $ % % % % % % % % % % % % % % * : O O O                                         ",
"                                        ; O O O % % % % % % % % % % % % % % > , < O O O                                         ",
"                                        ; O O O % % % % % % % % % % % % % > 1 , < O O O                                         ",
"                2                       ; O + O % % % % % % % % % % % % 3 4 1 , < O 5 +                                         ",
"              2 6                       7 + 8 O % % % % % % % % % % % > 4 1 1 , < 5 9 8                                         ",
"            0 q w                       e 8 + O % % % % % % % % % % > 1 1 1 1 , < r t +                                         ",
"          2 y u i                       7 + 8 O % % % % % % % % % > 1 1 1 1 p a < 5 9 8                                         ",
"          s u i d                       e 8 + O f f % % % % % % > 1 1 1 1 p a % < r t +                                         ",
"            i i g                       7 + . O h j f f % % % % 1 1 1 1 p a % % < 5 k .                                         ",
"            i i d                       X . . O % l h h z f * % , 1 1 , a % x f c + . .                                         ",
"            i i                         X . . O % v % % b v $ % % 1 1 % % % f v n + . .                                         ",
"            i i                         X . . O v % % % % % b v % % % % f j m % < + . .                                         ",
"            i i i                       X . . O % % % % 1 % % % b v % $ M N % % < + . .         B   .   .                       ",
"            i i                         X . . O % % % 1 1 1 1 % % V $ b m % > , < + . .           .   .   .   .   C Z           ",
"            i i i                       X . . O % % 1 1 1 1 1 % % % V v h > 1 , < + . .         .                               ",
"            i i                         X . . O % 1 1 1 1 1 % % % % % V N % % % < + . .       B     i               g d         ",
"            i   i                       X . . O % 1 1 1 1 % % % % 1 % % z m % % < + . .         .                       C Z     ",
"            i i                         X . . O % 1 1 1 % % % % 1 1 1 % % * A % < + . .       B                                 ",
"            i                           X . . O % 1 1 % % % % 1 1 1 1 % % z l h < + . .         B                       C Z     ",
"            i i                         X . . O % 1 % % % % 1 1 1 1 % % % % f h < + . .       B B                         C Z   ",
"            i i                         X . . O % % % % % 1 1 1 1 % % % % % % f n + . .         B                       X o     ",
"            i             S s           X . . O % % % % 1 1 1 1 % % % % % % % f n + . .             i               g d   C Z   ",
"            i i         D . o           X . . O $ % % 1 1 1 1 % % % % % % % % * : + . .         B                       C Z     ",
"            i d       2 y w F           X . . + : % > 1 1 1 , % % % % % % % % G H k . .         Z C   X   X   X C J B J K       ",
"            d g       6 u i d           L P . . O * , 1 1 , % % % % % % % % I U + . Y P           Z   o X o   o T R E R C W     ",
"            g d       o i d W           Q s . . + : * , , % % % % % % % % I ! H k . ~ s                 o       o C K C ^       ",
"            d           i g /               P . . + : * % % % % % % % % I ! H k . Y (                             W   W         ",
"            g           i d W               s P . . + : < * % % % % * < U H k . Y ) _                                           ",
"            d           d g /                 s P . . + + : < < < < : + + k . Y ) _                                             ",
"                          i d                   S . . . . O O O O O O . . . . P s                                               ",
"            i           i                         S . . . . . . . . . . . . P s                                                 ",
"                                                      S . . . . . . . . P s                                                     ",
"                        i                                 S S S S S S                                                           ",
"                                                                                                                                ",
"                                                                                                                                ",
"                                                                                                                                ",
"S S S S S S S S S S S S S S S S S S S S S S S S S S S S   S S S S S S S S S S S S S S S   S   S   S S S   S   S   2 s 2 S S S S ",
"` ` ` ` ` ` ` ` ` ` ` ` ` ` ` ` ` ` ` ` ` ` ` ` ` ` ` ` ` ` ` ` ` ` ` ` ` ` ` ` ` ` ` ` ` ` ` ` ` ` ` ` ` ` ` ` ` ` ` ` ` ` ` ` ",
"` ` @ @ ' ` @ @ ` ` @ @ ' ` ] @ [ ` ] @ { ' ` @ @ ` ` @ @ ' ` @ @ ` ` @ @ { } ] @ [ ` ` @ @ ' ` @ @ ` ` @ @ ' ` @ @ [ ` ] @ { } ",
"| | | | | | | |  .| | | |  ...X...X...X...|  . . . . . .|  .|  .|  .| | | | | | | | | | | | | | | | | | | | | | | | X...| | | X.",
"o.o.o.o.o.o.o.O.o.o.o.o.o.o.o.o.o.o.o.o.o.o.o.o.o.O.o.o.o.o.o.o.O.o.o.o.o.o.o.o.+.@.o.o.o.o.o.o.o.O.o.O.o.o.o.o.o.+.@.o.o.o.o.o.",
"O.o.o.o.o.o.O.o.o.o.o.o.o.o.o.o.o.o.o.o.o.o.o.O.O.o.o.o.o.o.o.o.o.o.o.o.o.o.o.#.$.$.%.o.o.o.o.o.o.o.O.o.o.o.o.o.O.@.o.o.o.o.o.o.",
"@.o.&.*.o.o.@.o.o.o.&.*.o.o.o.o.o.o.=.-.;.o.o.O.@.o.#.&.*.o.o.o.o.o.o.&.-.;.:.>.,.<.1.o.&.*.o.o.o.+.@.o.&.*.o.o.@.o.o.o.=.-.;.o.",
"o.+.2.' o.o.o.o.o.+.2.' o.o.o.o.o.3.4.5.;.o.+.@.+.o.6.2.' o.o.+.o.o.+.2.5.;.7.:.>.1.3.+.2.' o.o.+.@.o.+.2.' o.o.o.o.o.3.4.5.;.o.",
"o.O.8.;.o.o.o.o.o.O.8.;.o.o.o.o.o.+.' 9.@.o.@.+.@.o.O.8.0.o.o.@.o.o.O.8.9.@.:.>.1.o.+.O.8.;.o.+.O.o.o.O.8.;.o.o.o.o.o.+.' 9.@.3."
};
