/* XPM */
static char *bd8de3e6ab214e13aa1afed206839971z71f60HlD8tEo8Yt[] = {
/* columns rows colors chars-per-pixel */
"64 64 206 2 ",
"   c #76293C",
".  c #6D313B",
"X  c #7C2C4A",
"o  c #742D48",
"O  c #6F3A46",
"+  c #643440",
"@  c #7C334B",
"#  c #7B3B4B",
"$  c #763847",
"%  c #773950",
"&  c #7B3951",
"*  c #7E3553",
"=  c #9D213D",
"-  c #DE0A1F",
";  c #D40A1C",
":  c #DD1A16",
">  c #E70C08",
",  c #EB0B0C",
"<  c #F60607",
"1  c #FE0406",
"2  c #FF0A01",
"3  c #FD050C",
"4  c #F60C0C",
"5  c #FE0A0D",
"6  c #F50608",
"7  c #E5120C",
"8  c #EF1A0A",
"9  c #E8130F",
"0  c #F51604",
"q  c #F3130D",
"w  c #F9110C",
"e  c #F21908",
"r  c #F81505",
"t  c #ED0E14",
"y  c #E4021B",
"u  c #EA021B",
"i  c #FF0611",
"p  c #F50C14",
"a  c #FE0B14",
"s  c #FE061B",
"d  c #F40C1C",
"f  c #FF0B1C",
"g  c #F10615",
"h  c #E41314",
"j  c #EF1410",
"k  c #EB191B",
"l  c #ED1719",
"z  c #F31314",
"x  c #FB1015",
"c  c #F11915",
"v  c #F5111B",
"b  c #FE131B",
"n  c #FF191C",
"m  c #DD0C24",
"M  c #D00F24",
"N  c #DB1023",
"B  c #CD1F36",
"V  c #C61F33",
"C  c #D11D3D",
"Z  c #E30321",
"A  c #EC0524",
"S  c #E10921",
"D  c #EC0C23",
"F  c #ED0C2A",
"G  c #FE0624",
"H  c #F60D24",
"J  c #FD0B23",
"K  c #F7072C",
"L  c #FE062B",
"P  c #F30C2A",
"I  c #FF092C",
"U  c #E41425",
"Y  c #EA1325",
"T  c #EE122A",
"R  c #EC1E20",
"E  c #F41123",
"W  c #FE1523",
"Q  c #F31B22",
"!  c #FD1823",
"~  c #F2112B",
"^  c #FF0532",
"/  c #FC0A32",
"(  c #F40A36",
")  c #EC1034",
"_  c #C52134",
"`  c #CA2237",
"'  c #D6223E",
"]  c #8A2D46",
"[  c #862F4F",
"{  c #843345",
"}  c #84344D",
"|  c #8D354C",
" . c #813E4C",
".. c #883B4B",
"X. c #90334E",
"o. c #843453",
"O. c #873C54",
"+. c #8B3C50",
"@. c #853D59",
"#. c #8D3450",
"$. c #B92E45",
"%. c #A4324B",
"&. c #CE1E43",
"*. c #D11B43",
"=. c #CC2343",
"-. c #CE2B48",
";. c #CA2E46",
":. c #D32243",
">. c #DE2147",
",. c #D42C46",
"<. c #DC244B",
"1. c #D4294A",
"2. c #DB2B4C",
"3. c #CD394C",
"4. c #DB314C",
"5. c #D2394B",
"6. c #D23649",
"7. c #DF2650",
"8. c #D82D51",
"9. c #D33451",
"0. c #E42C4B",
"q. c #E82948",
"w. c #ED2549",
"e. c #E3304D",
"r. c #E12D50",
"t. c #7FC8BF",
"y. c #2AE5DC",
"u. c #2EEDDC",
"i. c #34EBDE",
"p. c #3BEBDD",
"a. c #2CF0DC",
"s. c #33F0DC",
"d. c #02EBEC",
"f. c #02FEEE",
"g. c #0FFBEE",
"h. c #03F9E5",
"j. c #16F7EF",
"k. c #0EEFF5",
"l. c #0FE3FF",
"z. c #0CEBFF",
"x. c #06EEF2",
"c. c #13EFFF",
"v. c #1EEDFF",
"b. c #0AF2F3",
"n. c #03FFF5",
"m. c #0BFEF5",
"M. c #04F5FF",
"N. c #0DF7FF",
"B. c #01FFFF",
"V. c #0BFAFE",
"C. c #16F7F3",
"Z. c #12FAF2",
"A. c #13F4FD",
"S. c #1BF6FF",
"D. c #13FBFF",
"F. c #19F9FF",
"G. c #2FEBEC",
"H. c #33EFE3",
"J. c #3CEEE6",
"K. c #36E7ED",
"L. c #34ECEC",
"P. c #38EFEB",
"I. c #2EF3E2",
"U. c #36F2E4",
"Y. c #3DF0E4",
"T. c #35F2ED",
"R. c #3AF5ED",
"E. c #3AF2F0",
"W. c #3EF9F0",
"Q. c #75CDC5",
"!. c #7BCBC6",
"~. c #77C7CE",
"^. c #74CBCC",
"/. c #79CBCB",
"(. c #6FD0C9",
"). c #7CD2C9",
"_. c #75CAD3",
"`. c #7BC9D6",
"'. c #7CD1D4",
"]. c #45E9D1",
"[. c #42EBDE",
"{. c #45EBE4",
"}. c #49EEE8",
"|. c #4AE9E4",
" X c #B49DA7",
".X c #99AFBC",
"XX c #86B1B8",
"oX c #8BB2BA",
"OX c #86BABD",
"+X c #88BBBE",
"@X c #93B3BE",
"#X c #C4A8B4",
"$X c #98AFC1",
"%X c #86BBC6",
"&X c #8CBBC7",
"*X c #8FB5C8",
"=X c #8BBBCA",
"-X c #90B5C8",
";X c #93BACB",
":X c #96BAC7",
">X c #8AC4C7",
",X c #83C9C5",
"<X c #80C7CB",
"1X c #89C3C9",
"2X c #80D6CD",
"3X c #94C2D1",
/* pixels */
"B.B.B.B.B.B.B.B.B.B.B.B.B.B.B.B.B.B.B.B.B.B.B.B.B.B.B.B.B.B.B.B.B.B.B.B.B.B.B.B.B.B.B.B.B.B.B.B.N.V.M.n.f.f.B.M.S.A.M.B.Z.]. X%.",
"B.B.B.B.B.B.B.B.B.B.B.B.B.B.B.B.B.B.B.B.B.B.B.B.B.B.B.B.B.B.B.B.B.B.B.B.B.B.B.B.B.B.B.B.B.B.B.B.V.V.B.n.n.n.B.V.z.S.V.d.y.).# $.",
"B.B.B.B.B.B.B.B.B.B.B.B.B.B.B.B.B.B.B.B.B.B.B.B.B.B.B.B.B.B.B.B.B.B.B.B.B.B.B.B.B.B.B.B.B.B.B.B.B.B.n.n.n.n.B.V.V.V.n.T.&X% 3.M ",
"B.B.B.B.B.B.B.B.B.B.B.B.B.B.B.B.B.B.B.B.B.B.B.B.B.B.B.B.B.B.B.B.B.B.B.B.B.B.B.B.B.B.B.B.B.B.B.B.n.n.m.m.m.B.B.V.V.b.L.'.@.` ; ! ",
"B.B.B.B.B.B.B.B.B.B.B.B.B.B.B.B.B.B.B.B.B.B.B.B.B.B.B.B.B.B.B.B.B.B.B.B.B.B.B.B.B.B.B.B.B.B.B.B.n.n.n.B.A.V.B.B.f.E.1Xo =.D s 5 ",
"B.B.B.B.B.B.B.B.B.B.B.B.B.B.B.B.B.B.B.B.B.B.B.B.B.B.B.B.B.B.B.B.B.B.B.B.B.B.B.B.B.B.B.B.B.B.B.B.n.n.n.B.N.D.B.g.I.(.% 1.A s b 1 ",
"B.B.B.B.B.B.B.B.B.B.B.B.B.B.B.B.B.B.B.B.B.B.B.B.B.B.B.B.B.B.B.B.B.B.B.B.B.B.B.B.B.B.B.B.B.B.B.B.V.m.M.B.V.V.f.u.,X+ ;.T J s 6 a ",
"B.B.B.B.B.B.B.B.B.B.B.B.B.B.B.B.B.B.B.B.B.B.B.B.B.B.B.B.B.B.B.B.B.B.B.B.B.B.B.B.B.B.B.B.B.B.B.B.V.M.B.B.B.j.p.Q.O 3.- i f a p d ",
"B.B.B.B.B.B.B.B.B.B.B.B.B.B.B.B.B.B.B.B.B.B.B.B.B.B.B.B.B.B.B.B.B.B.B.B.B.B.B.B.B.B.B.B.B.B.B.B.B.V.B.B.n.{..XX.` Y v p f v E T ",
"B.B.B.B.B.B.B.B.B.B.B.B.B.B.B.B.B.B.B.B.B.B.B.B.B.B.B.B.B.B.B.B.B.B.B.B.B.B.B.B.B.B.B.B.B.B.B.B.M.B.B.b.J.<X] w.E a x x f J ) ) ",
"B.B.B.B.B.B.B.B.B.B.B.B.B.B.B.B.B.B.B.B.B.B.B.B.B.B.B.B.B.B.B.B.B.B.B.B.B.B.B.B.B.B.B.B.B.B.B.B.B.B.B.L.-X[ 0.u f x z z J L / ( ",
"B.B.B.B.B.B.B.B.B.B.B.B.B.B.B.B.B.B.B.B.B.B.B.B.B.B.B.B.B.B.B.B.B.B.B.B.B.B.B.B.B.B.B.B.B.B.B.B.B.A.E.~.o.<.A f a a z v J L / ^ ",
"B.B.B.B.B.B.B.B.B.B.B.B.B.B.B.B.B.B.B.B.B.B.B.B.B.B.B.B.B.B.B.B.B.B.B.B.B.B.B.B.B.B.B.B.B.B.B.B.Z.{.:Xo.8.A u W d f G J I H J G ",
"B.B.B.B.B.B.B.B.B.B.B.B.B.B.B.B.B.B.B.B.B.B.B.B.B.B.B.B.B.B.B.B.B.B.B.B.B.B.B.B.B.B.B.B.B.B.B.C.[.,X} 0.D f ! j v J L L J J f a ",
"B.B.B.B.B.B.B.B.B.B.B.B.B.B.B.B.B.B.B.B.B.B.B.B.B.B.B.B.B.B.B.B.B.B.B.B.B.B.B.B.B.B.B.B.B.B.B.K.@X{ 2.D p b l h P I ^ ^ J a w 0 ",
"B.B.B.B.B.B.B.B.B.B.B.B.B.B.B.B.B.B.B.B.B.B.B.B.B.B.B.B.B.B.B.B.M.B.B.B.B.B.B.B.B.B.B.B.B.C.K.`.+.e.y G b 4 7 Q H / ^ ^ G a w 0 ",
"B.B.B.B.B.B.B.B.B.B.B.B.B.B.B.B.B.B.B.B.B.B.B.B.B.B.B.B.B.B.B.B.A.A.M.B.n.n.B.M.M.B.B.B.Z.|.$Xo.B Y G f f s d v J G J J G f a x ",
"B.B.B.B.B.B.B.B.B.B.B.B.B.B.B.B.B.B.B.B.B.B.B.B.B.B.B.B.B.B.B.M.N.D.V.n.n.n.V.V.M.M.B.A.{.>X] 0.~ f f f f f f f f f f f f f f f ",
"B.B.B.B.B.B.B.B.B.B.B.B.B.B.B.B.B.B.B.B.B.B.B.B.B.B.B.B.B.B.B.B.M.V.m.n.B.B.N.N.M.B.B.L.-Xo.9.m H f f f f d f f f f f J f f f f ",
"B.B.B.B.B.B.B.B.B.B.B.B.B.B.B.B.B.B.B.B.B.B.B.B.B.B.B.B.B.B.B.B.B.n.n.n.B.V.N.N.B.A.E._.* 1.m W J f f f f f f J f f f f J f f f ",
"B.B.B.B.B.B.B.B.B.B.B.B.B.B.B.B.B.B.B.B.B.B.B.B.B.B.B.B.B.B.B.B.n.n.n.B.N.N.V.V.n.J.;Xo.8.A g b d f f f f f s f s f f f f f f f ",
"B.B.B.B.B.B.B.B.B.B.B.B.B.B.B.B.B.B.B.B.B.B.B.B.B.B.B.B.B.B.B.B.n.n.n.V.D.A.V.Z.J.~.o.7.F f n p f f f f f f f f f f f f f f f f ",
"B.B.B.B.B.B.B.B.B.B.B.B.B.B.B.B.B.B.B.B.B.B.B.B.B.B.B.B.B.B.B.B.V.V.V.M.B.B.f.H.oX[ r.A d W c p f f f f f J f f J f f J d f f f ",
"B.B.B.B.B.B.B.B.B.B.B.B.B.B.B.B.B.B.B.B.B.B.B.B.B.B.B.B.B.B.B.B.V.N.V.V.B.g.s.Q.#.q.u G W t t Q v f f f f f f f f f f f f s f J ",
"B.B.B.B.B.B.B.B.B.B.B.B.B.B.B.B.B.B.B.B.B.B.B.B.B.B.B.B.B.B.B.M.N.D.V.B.n.U.OX .` H a a x v T T W f J f f f f f f J b f f f f J ",
"B.B.B.B.B.B.B.B.B.B.B.B.B.B.B.B.B.B.B.B.B.B.B.B.B.B.B.B.B.B.B.B.N.M.M.b.H.Q.$ 6.E a a x z ~ ~ P J f f f J f J f f f J f J f f f ",
"B.B.B.B.B.B.B.B.B.B.B.B.B.B.B.B.B.B.B.B.B.B.B.B.B.B.B.B.B.B.B.B.M.M.B.T.%X& 4.y x x q z f I ^ ^ J J J f f f f W f f f f f J f W ",
"B.B.B.B.B.B.B.B.B.B.B.B.B.B.B.B.B.B.B.B.B.B.B.B.B.B.B.B.B.B.B.B.B.C.R.^.& 1.S W x q c v J L L ^ J f f b J f f f J f J f f f f f ",
"B.B.B.B.B.B.B.B.B.B.B.B.B.B.B.B.B.B.B.B.B.B.B.B.B.B.B.B.B.B.B.n.g.[.:X@ 2.Z g n c v f J W J J G J f J f f J f J f f f f f f f J ",
"B.B.B.B.B.B.B.B.B.B.B.B.B.B.B.B.B.B.B.B.B.B.B.B.B.B.B.B.B.B.B.Z.[.t.@ 1.H s b p Y Q I I J f x a f f b f f b f f W f J f J f f b ",
"B.B.B.B.B.B.B.B.B.B.B.B.B.B.B.B.B.B.B.B.B.B.B.B.B.B.B.B.B.B.B.L.+X$ 3.U a b x a ~ ~ / I I x e e b f J f f J f f f f f J f f J f ",
"B.B.B.B.B.B.B.B.B.B.B.B.B.B.B.B.B.B.B.B.B.B.B.B.B.B.B.B.B.Z.K.`.# 6.; v b 1 3 W W ~ / / J a e 8 x f J f f f J f J f b J f J f f ",
"B.B.B.B.B.B.B.B.B.B.B.B.B.B.B.V.V.V.B.B.n.B.B.B.M.B.B.B.n.[..XX.` R E f b f f f W J J J G b b v f W f J J f J f f f f b J f J f ",
"B.B.B.B.B.B.B.B.B.B.B.B.B.B.B.B.V.b.V.B.n.n.B.M.B.M.B.b.U.!.] q.~ f f f f J f f f f J W f f f f f f f f b J b J f J J f f f f f ",
"B.B.B.B.B.B.B.B.B.B.B.B.B.B.B.B.M.B.V.n.B.B.M.V.V.B.B.L.%X$ 5.m H f f J f f f f f J J b J f f W b J W f J f f J f f f f f f J f ",
"B.B.B.B.B.B.B.B.B.B.B.B.B.B.B.B.B.B.V.m.V.B.V.V.M.A.T._.# ,.N v f f f b J J b f W f f J f W J f J f f J b f J b b J J f f J f b ",
"B.B.B.B.B.B.B.B.B.B.B.B.B.B.B.B.n.n.B.V.D.N.N.V.n.J.&Xo.8.A t n b J f J f J f f f f J f J f b J f b f b J f f J b f b J f f f f ",
"B.B.B.B.B.B.B.B.B.B.B.B.B.B.B.B.n.n.B.B.N.A.V.C.U./.o.<.P f b 4 f f f f f f J b J f b J b f J f b J f W J b b J f f f f W f b f ",
"B.B.B.B.B.B.B.B.B.B.B.B.B.B.B.B.N.V.M.B.B.B.f.i.OX@ 2.H s b c j v f f f J f f f f W J f J f b J f f J f f b f f J f f f f f f f ",
"B.B.B.B.B.B.B.B.B.B.B.B.B.B.B.B.A.A.V.B.B.Z.i.!. .4.y s b p h R v f J b f f f J f J b J b J J f J b b f b J J b f b b f f f W f ",
"B.B.B.B.B.B.B.B.B.B.B.B.B.B.B.V.S.A.M.B.V.U.XX+._ d a a a f Y U W f f J f J b f f f f f J f f J b f f f b f f f f f f f x b f f ",
"B.B.B.B.B.B.B.B.B.B.B.B.B.B.B.M.z.S.V.d.y.'...' D a 4 5 f J ~ T J f f f f f f J f J b J f f f b f f b b f f b b b f f f f f b a ",
"B.B.B.B.B.B.B.B.B.B.B.B.B.B.B.B.B.M.B.T.=X@ 2.u z q q z f G / / J J b J f J f f J f f f J f f f f f a f a b x f a f a b f a f a ",
"B.B.B.B.B.B.B.B.B.B.B.B.B.B.B.B.V.b.P.'.@.&.y W 4 q j z f J L L J f f f f f J f f f f J f b J f f x b f a f f a f a f a a f a f ",
"B.B.B.B.B.B.B.B.B.B.B.B.B.B.B.B.d.}.:XX =.F f p p p d G f J J G f f f f f J f W f b J f b f f f f b a f f a f f f a a v a a d a ",
"B.B.B.B.B.B.B.B.B.B.B.B.B.B.B.C.p.,X| >.A s W , t H J G W v x a f J J f f f f f f J f f f J J b f a f a f a a b a a d a f a a f ",
"B.B.B.B.B.B.B.B.B.B.B.B.B.B.B.G.>X. :.~ f a 6 v J G L L J p r r x f f b f f f J f J f J f J b f f x x a a b a v a a a a a a p a ",
"B.B.B.B.B.B.B.B.V.M.B.B.B.Z.L._.$ 5.m a a 3 4 a G L ^ J f x 0 0 x f f J W f f f f f b f f f f f a f a x a b a a a a a p a a a a ",
"B.B.B.B.n.m.V.N.c.c.M.B.m.U.XXO._ U H f a a a d f G G f f f x x f f f a f f f f f f a f x f a x a x f a a a x a a a i a a a a a ",
"B.B.B.V.n.m.V.A.z.S.V.x.i.)...' D s f s f s s s f s f f f f f f f f f f f f a a x f x b a x a a x a a x x a a x a a a 5 a 5 a 3 ",
"B.B.b.V.B.B.B.M.V.M.B.E.&X@ 2.u J s f s s f s s f s f f f G b J f f f f a f a f f a a a a a a x a a a a a x a a 5 a 5 a 3 a a a ",
"B.n.V.V.V.B.B.B.B.b.H.`.O.C y J a s f f f s a f a f s f f f f f f f f f f f b a a f f a x a a a x a a x a a a a a a a a a a a 5 ",
"n.m.B.V.V.V.B.B.n.W.3XX &.K a i a s f s d s a s s f f s f f f f f f f a a f a f a a a f 5 a a a a a a a a 5 a a a a a 5 a 5 a a ",
"m.n.B.B.V.V.B.Z.U./.@ <.A a x < a f s f f s s f f s f f f f f G f f f f f f f a f a a a a a a a a a a a a a a a 5 i a a a a 3 a ",
"A.V.B.B.B.M.f.p.:X  :.P G a > c p s f s f f s f s s f s f f f f s f f f f a f a a f a a a a a a a a a a a a a a a a a a a a a a ",
"A.A.M.B.B.Z.p.!.@ e.u i a a h k d f s a f s f f f f f f f f f f f f f f f f a f a a a a a 5 a 5 a 5 5 a a 5 a 5 3 a i a 5 a 5 a ",
"v.c.M.B.V.U.XX+._ d a 3 i s d S d s s a f s d a f s s f s f s a f f f s a f a f a f a a a a a a 5 a a a i a a i i i 3 i i i a 3 ",
"l.D.D.d.u.`...C l a 5 5 a G P F d s s d s s s s s f a s s s f f s a f f f a a a f a a a a a a a i a i i a i a a i 5 a i a 3 i i ",
"V.M.B.E.&XX 2.u a 3 4 4 i G P P f s s s a s d s f s f f s d f s f s f s s a f a f a a a a a a a a i i a i a i a i i i i i i i i ",
"B.b.L.'.@.*.y G i 3 4 p s G L G d s s p s s a s s f s f a f s f f f f a f f f a a f a a a a 5 a a i a i i 3 i a i i i 3 i 3 i i ",
"h.R.3Xo &.A s i i i s s H d J s s s s s a s p s s s d f f f a s a d s a a s a a a s p a a a a a i i a i a i i i i i i i i i i 3 ",
"].Q.{ ' u s b 6 s s G J d g i i a a s s s s f s a s f f f d s f f s s f a s a a a s a a 5 a 5 a 3 i i i i i 3 i 3 i i i i i i a ",
"#X  :.H a 5 > k D F K G s a 2 2 a f s s s d s s s f f a s s f f s a s s a a a s a a i p i i 5 i i i i i i i i i i i i i i i 3 i ",
"= 9.Z i 5 < 7 : m F ( K s 3 2 2 4 s s s a s s a f f s s s s a s f s s g s s a a a a a a i i a a i i i 3 i 3 i i i i 3 i i i i i "
};
