/* XPM */
static char *_49c472812b440fccffaa843dc82981eJpQC0sCHpqS3Qok5[] = {
/* columns rows colors chars-per-pixel */
"64 64 189 2 ",
"   c #7E323F",
".  c #762840",
"X  c #792E4B",
"o  c #7D2F45",
"O  c #7E3244",
"+  c #743A44",
"@  c #7E334C",
"#  c #75384B",
"$  c #7C3E4B",
"%  c #7D3553",
"&  c #7A3852",
"*  c #79414E",
"=  c #862B3D",
"-  c #D40018",
";  c #DA061D",
":  c #DE091E",
">  c #D10E1E",
",  c #E70B0D",
"<  c #EE0A0B",
"1  c #FB0405",
"2  c #F4050B",
"3  c #FE070C",
"4  c #F10E0E",
"5  c #FC0A0E",
"6  c #FB0E03",
"7  c #ED1B07",
"8  c #ED1A09",
"9  c #F71101",
"0  c #F91001",
"q  c #F31A05",
"w  c #F5140E",
"e  c #FB100C",
"r  c #E90016",
"t  c #ED0C12",
"y  c #E7041C",
"u  c #EA021B",
"i  c #E10A1C",
"p  c #EF0E1A",
"a  c #F50512",
"s  c #FC0514",
"d  c #F50B13",
"f  c #FE0B14",
"g  c #FE061B",
"h  c #F50C1B",
"j  c #FE0C1D",
"k  c #E71B10",
"l  c #ED1812",
"z  c #EE1718",
"x  c #F31414",
"c  c #FC1115",
"v  c #F3131B",
"b  c #FD121B",
"n  c #FD1B1E",
"m  c #CF0723",
"M  c #D00920",
"N  c #DC0B20",
"B  c #DB1124",
"V  c #CC1D34",
"C  c #EB0523",
"Z  c #E50C24",
"A  c #EC0B24",
"S  c #ED0628",
"D  c #EC0D2A",
"F  c #FE0622",
"G  c #F30D22",
"H  c #FF0C21",
"J  c #F6072E",
"K  c #FE062B",
"L  c #F40B2B",
"P  c #FD0B2C",
"I  c #EB1324",
"U  c #E71129",
"Y  c #EE1228",
"T  c #E51925",
"R  c #F41123",
"E  c #FC1323",
"W  c #F4112B",
"Q  c #E90F32",
"!  c #F60730",
"~  c #FE0532",
"^  c #F50833",
"/  c #FA0C30",
"(  c #F20938",
")  c #C42637",
"_  c #CD2034",
"`  c #CA2138",
"'  c #872F48",
"]  c #813346",
"[  c #83334C",
"{  c #8B364B",
"}  c #86394B",
"|  c #813653",
" . c #8B3751",
".. c #803850",
"X. c #A72A4A",
"o. c #A42844",
"O. c #BF2847",
"+. c #CD1D43",
"@. c #CE2E4A",
"#. c #D32445",
"$. c #D92547",
"%. c #D52947",
"&. c #DC2B45",
"*. c #D7254B",
"=. c #DB264C",
"-. c #D52B4B",
";. c #DB2C4C",
":. c #CE3746",
">. c #C9374D",
",. c #D4344B",
"<. c #D83248",
"1. c #D63346",
"2. c #D82D51",
"3. c #CF3750",
"4. c #D83351",
"5. c #E12641",
"6. c #E52846",
"7. c #E32C4B",
"8. c #E4304D",
"9. c #2EEFDC",
"0. c #3CE4DD",
"q. c #31EDDC",
"w. c #39E9DE",
"e. c #02FFEE",
"r. c #0FFDEF",
"t. c #1CF4EF",
"y. c #11FBEE",
"u. c #0DEDF2",
"i. c #02EFFF",
"p. c #0CF4F5",
"a. c #02FFF5",
"s. c #09FDF4",
"d. c #04F6FF",
"f. c #0DF6FF",
"g. c #01FFFF",
"h. c #0AFAFE",
"j. c #14F6F4",
"k. c #13FCF1",
"l. c #1AFFF5",
"z. c #12F5FF",
"x. c #12F7FC",
"c. c #13F5FE",
"v. c #19F2FF",
"b. c #11F9FD",
"n. c #1CF4F1",
"m. c #2FEBEC",
"M. c #34EDE4",
"N. c #3FE8E1",
"B. c #38E7EC",
"V. c #34EBEC",
"C. c #39EEEB",
"Z. c #35F2E5",
"A. c #3AF2E5",
"S. c #36F0EB",
"D. c #39F2EE",
"F. c #39F2F1",
"G. c #3EF8F3",
"H. c #54DED1",
"J. c #75CFC5",
"K. c #7BCAC5",
"L. c #75CAC8",
"P. c #74CACC",
"I. c #79CBCB",
"U. c #73CBD3",
"Y. c #7BCBD6",
"T. c #41E5DE",
"R. c #44ECDE",
"E. c #4BE8DF",
"W. c #58E2D3",
"Q. c #41ECE2",
"!. c #BB96A8",
"~. c #9AADBB",
"^. c #8AB7BC",
"/. c #8CB5BB",
"(. c #84BABC",
"). c #94B4BD",
"_. c #C39FAD",
"`. c #84C3BE",
"'. c #8FB5C3",
"]. c #8AB8C5",
"[. c #8AB7CA",
"{. c #8CBAC9",
"}. c #85BBC5",
"|. c #92B4C4",
" X c #92BBC5",
".X c #91B6C9",
"XX c #83C5C1",
"oX c #8BCCCE",
"OX c #94C1D4",
/* pixels */
"o.>.M h b 1 2 v U Q ( ~ F f 6 9 f H H j H H j H H j H H H j H H j j j j b j j j j j f f j f b f f g f g f g f f f 5 f 3 f s 5 5 ",
"_.] ,.Z s b f d U D ^ K F s 5 6 f j H H H j H j H H H H H H H H j j H j H j H b j b b j j b f b j j f f f f f s f f f 3 5 5 5 5 ",
"W.XX@ %.C g b a p G K K F F f f j H j F j H j j H H j H j H H j H H j j j H j j j f b f f f j f f g f f f g 5 s 5 5 f f f 5 5 s ",
"y.N.|.% *.C a H h h j F F F F F F j H H H j H F H H j F H H H H j j j H j b j j j j j j j b b f f j j f f f f f f s f 5 5 5 5 5 ",
"d.x.F.U.| =.S j f f d f F F ~ K F H H h H H j F j H j H H H H H j H H j j b H j j j f f f b f b j j j g f f f s f f f 5 5 5 5 5 ",
"d.g.a.C.[.@ ;.u f 5 f d H K ^ ^ H H H H j j H j H H H H j H j H j j j j j j j j j b b j j j f f g g f f f f f f f 5 f s f 5 s 5 ",
"h.d.d.p.M.L.o &.G s 5 f h R U Q G H F j F j j H H H H H H H j H H j j H j j j b j f f j f b f b f j g f g f g f 3 f f 5 5 5 2 5 ",
"h.h.g.g.a.A.^.} V G g f h p Y G H H j H H h H j j H j H H H H H H j j H j j j H j j b j f j b f f j f f f f f f f f s 5 f 5 f 5 ",
"c.z.f.h.g.y.9.K.{ 7.u g E a d E h F H j H j j F H H H H H H H H j H j j H j j j b j f b f j b f f j f j f f s f f f f f 5 f 5 5 ",
"x.z.f.f.h.g.e.q.^.] <.C g E d 2 j H j H j F H H j H j H H j H H j j j H b j j j j j j f j b f b j j j f f g f f f 5 f 5 f 5 5 f ",
"r.a.a.g.h.h.g.r.Z.I.@ =.S g b 3 f H F j H j F h H H j H H j H j j j j H j j b j j f j f j f f f j j f j j f f f f f f f 5 f 5 f ",
"e.e.a.a.h.h.h.a.a.S.{.| =.C a b j H j H j H j H H H H H H H H j H H j j j j H j b j j b f j b b j j j f j f f f f f f 5 f f 5 5 ",
"a.a.a.s.g.g.h.h.d.p.V.P.@ #.: v H j F j F j j j j H H j H H j E j j H j j j j j j j j f b j b f f j f b f j f f f f f f 5 f 5 5 ",
"g.g.a.a.a.a.z.z.d.g.a.C.|.@ ,.; G H j H j H H F H H H H H H H H j H j j j j H b j j f f j f f b j j j f f f f f 5 f f 5 f 5 5 f ",
"h.h.g.a.a.r.x.z.h.g.g.j.Q.XXO &.Y j H H H j H j H H H H H H H H j j H H j j j j f j j b b f b f j j f j f g f f f f f f f 5 5 f ",
"h.h.g.a.a.s.h.z.d.g.g.d.p.R./.[ ` W G h j j h H E H K H F j c c b H j j b H j j E f j j j j f j f b f f f f f f f f f 5 f f 5 5 ",
"g.g.g.g.a.g.g.h.g.g.g.g.h.j.V.Y. .7.N R E 5 d R W P / ~ F b 8 8 c H H H j E j E H H H b j j H b b b f b b f f f f f f f f f 5 5 ",
"g.g.g.g.g.g.g.g.g.g.g.g.g.g.g.V.|.] 3.B h b c h W / ~ ~ F c 8 8 c H b b j H j j b b H H H E j j b f c f f c f c c f f 5 5 f f f ",
"g.g.g.g.g.g.g.g.g.g.g.g.g.g.g.j.N.K.& 2.D g E f H P K K H v c v E j j H E j E j H H b H b H b H b c f c c f f f f f f f f 5 3 f ",
"g.g.g.g.g.g.g.g.g.g.g.g.g.g.g.a.s.C.{.% 2.S g E f f E H W H H H H E j E H j H H H b H H b H H H f c h c c f c b f f f 5 f f 5 s ",
"g.g.g.g.g.g.g.g.g.g.g.g.g.g.g.g.g.p.F.U.% =.C H c x l z E K K K H E H j H H b b H H b H j H E b b b c c j h f f f f f f f s f s ",
"g.g.g.g.g.g.g.g.g.g.g.g.g.g.g.g.d.d.d.B.[.% 4.: v l k l j K ~ ~ H H b H b H H H b H E H j E j j b f f b b f f b c f f f s f s 5 ",
"g.g.g.g.g.g.g.g.g.g.g.g.g.g.g.h.h.f.h.c.S.P.# ,.T c l l v H ~ K H E H H j j j E E H j j j j b H b j c f f f j f f f f g f g f s ",
"g.g.g.g.g.g.g.g.g.g.g.g.g.g.g.g.d.x.f.h.s.Z.(.$ ) I x x v v H H H H H b E H j j j j j E E H H j j b h b b f f j h j g f f f s f ",
"g.g.g.g.g.g.g.g.g.g.g.g.g.g.g.g.h.h.h.h.h.n.w.XX{ 6.u j n t t E j j j j j h E j H b H j j E b H j j c f j b b f f f f j f j g f ",
"g.g.g.g.g.g.g.g.g.g.g.g.g.g.g.g.g.g.h.h.z.c.y.T.).[ 7.A p n l w c H j E H j H j H b H E j j H H b b h b f f j j f j j f j f j f ",
"g.g.g.g.g.g.g.g.g.g.g.g.g.g.g.g.a.a.g.h.v.v.x.t.A.K.% ;.Z j n 5 j H j j j j j j j H j j H j H b h f b j b j f j j f j j f g j f ",
"g.g.g.g.g.g.g.g.g.g.g.g.g.g.g.a.a.a.a.h.c.c.h.h.a.Z.{.| ,.y 3 b j b H j H H b H j E H E E j b H H b h j j b b j j j j f j j j j ",
"g.g.g.g.g.g.g.g.g.g.g.g.g.g.g.g.a.a.a.s.h.h.g.g.d.p.F.P.@ $.Z j j E H j j j j j j j H j H j j E h j j v b j j H f j j j j j j g ",
"g.g.g.g.g.g.g.g.g.g.g.g.g.g.g.g.h.h.h.h.a.a.g.d.g.g.a.C.|.] ,.i E j j j j E H j E j E j j E j j E j j j H j j j H g j j j j j j ",
"g.g.g.g.g.g.g.g.g.g.g.g.g.g.g.g.z.v.h.a.a.a.g.h.h.d.h.j.Q.XXO 1.I j v H b H j b E H H H E j E H j v b H j j j j j j H j j g g j ",
"g.g.g.g.g.g.g.g.g.g.g.g.g.g.g.h.z.c.h.a.a.a.g.h.h.h.d.g.k.E.^.* ) T R H j f j H H H E H E f c c j j j j j b j j j j f j g j g j ",
"g.g.g.g.g.g.g.g.g.g.g.g.g.g.g.g.h.h.g.g.a.g.g.g.h.g.g.g.a.j.V.U.* :.> z b 3 3 b W W / P j c q q c j H j j j H H j j j j g j j j ",
"g.g.g.g.g.g.g.g.g.g.g.g.g.g.g.g.g.g.g.g.g.g.g.g.g.g.g.g.g.g.g.V.(.+ >.B d b c d R W / K j c q q f j j j H j j j j j j j j j j F ",
"g.g.g.g.g.g.g.g.g.g.g.g.g.g.g.g.g.g.g.g.g.g.g.g.g.g.g.g.g.g.g.j.Q.K.$ -.S j b w z R H F j f c f j j H j j j H j j j j j j j j j ",
"g.g.g.g.g.g.g.g.g.g.g.g.g.g.g.g.g.g.g.g.g.g.g.g.g.g.g.g.g.g.g.g.r.Q.|.} ;.C d n x x b j H H j j j j H j H j j j j j j F j g j j ",
"g.g.g.g.g.g.g.g.g.g.g.g.g.g.g.g.g.g.g.g.g.g.g.g.g.g.g.g.g.g.g.g.d.p.D.P.# -.Z j e w x x b F K K F H j j H j j H j j j j j j j j ",
"g.g.g.g.g.g.g.g.g.g.g.g.g.g.g.g.g.g.g.g.g.g.g.g.g.g.g.g.g.g.g.g.g.g.a.S.}.# ,.i c e w w f F K K H j H j H j j H j F j j F j j j ",
"g.g.g.g.g.g.g.g.g.g.g.g.g.g.g.g.g.g.g.g.g.g.g.g.g.g.g.g.g.g.g.g.h.d.d.p.Z.J.+ <.I f e 5 c R W L H H j j j j j j j j j g j F g j ",
"g.g.g.g.g.g.g.g.g.g.g.g.g.g.g.g.g.g.g.g.g.g.g.g.g.g.g.g.g.g.g.h.h.x.h.g.a.Z.(.$ _ H f f c v I R H H j H j H H j g j j j j j j j ",
"g.g.g.g.g.g.g.g.g.g.g.g.g.g.g.g.g.g.g.g.g.g.g.g.g.g.g.g.g.g.g.g.h.h.d.h.g.y.9.K.{ 6.r f b < , v j j g h g g j j j g f j j j g g ",
"g.g.g.g.g.g.g.g.g.g.g.g.g.g.g.g.g.g.g.g.g.g.g.g.g.g.g.g.g.g.g.g.h.h.h.h.h.g.e.q./.] 7.G g n w w g j f g g g j f g j g g j g f g ",
"g.g.g.g.g.g.g.g.g.g.g.g.g.g.g.g.g.g.g.g.g.g.g.g.g.g.g.g.g.g.g.a.a.a.g.g.z.h.h.y.M.K.[ 6.S g c 1 f g g g f j g g g j j g g g j j ",
"g.g.g.g.g.g.g.g.g.g.g.g.g.g.g.g.g.g.g.g.g.g.g.g.g.g.g.g.g.g.g.g.a.a.a.g.h.f.h.h.a.M.'.| %.u 2 b d g j g j j g j g f g j g j g j ",
"g.g.g.g.g.g.g.g.g.g.g.g.g.g.g.g.g.g.g.g.g.g.g.g.g.g.g.g.g.g.g.g.a.g.a.g.g.h.f.f.h.x.D.P.@ %.Z v j g f j g f j g f g g j g f j j ",
"g.g.g.g.g.g.g.g.g.g.g.g.g.g.g.g.g.g.g.g.g.g.g.g.g.g.g.g.g.g.g.g.g.h.a.g.a.g.f.h.h.d.a.C.'.] ,.; G g j j g g j j j g g j h g g j ",
"g.g.g.g.g.g.g.g.g.g.g.g.g.g.g.g.g.g.g.g.g.g.g.g.g.g.g.g.g.g.g.h.f.z.h.a.a.a.h.h.d.d.g.p.Q.(.= 5.G j g g g j g g j j f j g j g g ",
"g.g.g.g.g.g.g.g.g.g.g.g.g.g.g.g.g.g.g.g.g.g.g.g.g.g.g.g.g.g.g.h.z.f.d.a.a.a.g.h.g.g.g.d.k.E.~.{ V A v g f f h g j G F F j f f d ",
"g.g.g.g.g.g.g.g.g.g.g.g.g.g.g.g.g.g.g.g.g.g.g.g.g.g.g.g.g.g.g.g.h.h.g.g.a.g.g.g.g.g.g.g.h.j.B.Y.} &.; h c 1 2 v G D J J g s 6 9 ",
"g.g.g.g.g.g.g.g.g.g.g.g.g.g.g.g.g.g.g.g.g.g.g.g.g.g.g.g.g.g.g.g.g.g.g.g.g.g.g.g.g.g.g.g.g.g.a.V./.O ,.i 5 c 5 t I A J K g s 6 9 ",
"g.g.g.g.g.g.g.g.g.g.g.g.g.g.g.g.g.g.g.g.g.g.g.g.g.g.g.g.g.g.g.g.g.g.g.g.g.g.g.g.g.g.g.g.g.g.g.j.R.`.@ %.C g b d p R F F g g s 5 ",
"g.g.g.g.g.g.g.g.g.g.g.g.g.g.g.g.g.g.g.g.g.g.g.g.g.g.g.g.g.g.g.g.g.g.g.g.g.g.g.g.g.g.g.g.g.g.g.g.r.Q.|.[ =.C a b d d g j H F F g ",
"g.g.g.g.g.g.g.g.g.g.g.g.g.g.g.g.g.g.g.g.g.g.g.g.g.g.g.g.g.g.g.g.g.g.g.g.g.g.g.g.g.g.g.g.g.g.g.g.g.j.F.P.@ *.y j f 3 5 h g F J ~ ",
"g.g.g.g.g.g.g.g.g.g.g.g.g.g.g.g.g.g.g.g.g.g.g.g.g.g.g.g.g.g.g.g.g.g.g.g.g.g.g.g.g.g.g.g.g.g.g.g.d.g.a.V.].@ ;.r f f 6 5 g K J ( ",
"g.g.g.g.g.g.g.g.g.g.g.g.g.g.g.g.g.g.g.g.g.g.g.g.g.g.g.g.g.g.g.g.g.g.g.g.g.g.g.g.g.g.g.g.g.g.g.g.g.h.g.p.M.L.] 7.h s 3 5 h A D Q ",
"g.g.g.g.g.g.g.g.g.g.g.g.g.g.g.g.g.g.g.g.g.g.g.g.g.g.g.g.g.g.g.g.g.g.g.g.g.g.g.g.g.g.g.g.g.g.g.h.h.h.h.g.a.Z.^.[ V G s f d p Z Z ",
"g.g.g.g.g.g.g.g.g.g.g.g.g.g.g.g.g.g.g.g.g.g.g.g.g.g.g.g.g.g.g.g.g.g.g.g.g.g.g.g.g.g.g.g.g.g.g.g.h.z.f.h.g.y.q.L.] 7.u a g d d v ",
"g.g.g.g.g.g.g.g.g.g.g.g.g.g.g.g.g.g.g.g.g.g.g.g.g.g.g.g.g.g.g.g.g.g.g.g.g.g.g.g.g.g.g.g.g.g.g.g.f.z.z.f.h.g.e.q. X. #.L F s 2 d ",
"g.g.g.g.g.g.g.g.g.g.g.g.g.g.g.g.g.g.g.g.g.g.g.g.g.g.g.g.g.g.g.g.g.g.g.g.g.g.g.g.g.g.g.g.g.g.g.a.s.s.a.g.h.h.g.y.Z.I.| *.C g f 1 ",
"g.g.g.g.g.g.g.g.g.g.g.g.g.g.g.g.g.g.g.g.g.g.g.g.g.g.g.g.g.g.g.g.g.g.g.g.g.g.g.g.g.g.g.g.g.g.g.g.a.a.a.g.h.h.h.g.a.G.OXX +.S f s ",
"g.g.g.g.g.g.g.g.g.g.g.g.g.g.g.g.g.g.g.g.g.g.g.g.g.g.g.g.g.g.g.g.g.g.g.g.g.g.g.g.g.g.g.g.g.g.g.g.a.a.a.g.g.g.f.h.g.p.V.Y.| +.- H ",
"g.g.g.g.g.g.g.g.g.g.g.g.g.g.g.g.g.g.g.g.g.g.g.g.g.g.g.g.g.g.g.g.g.g.g.g.g.g.g.g.g.g.g.g.g.g.g.g.g.g.s.a.a.h.f.f.h.d.g.F..XX @.m ",
"g.g.g.g.g.g.g.g.g.g.g.g.g.g.g.g.g.g.g.g.g.g.g.g.g.g.g.g.g.g.g.g.g.g.g.g.g.g.g.g.g.g.g.g.g.g.g.g.h.h.g.a.a.s.f.z.i.h.g.u.M.oX..@.",
"g.g.g.g.g.g.g.g.g.g.g.g.g.g.g.g.g.g.g.g.g.g.g.g.g.g.g.g.g.g.g.g.g.g.g.g.g.g.g.g.g.g.g.g.g.g.g.g.d.h.g.a.a.s.z.z.h.d.d.h.j.H.!.o."
};
