/* XPM */
static char *_04fc85ef1eb4568a56a73a476e68258HnSgTmqRgdLuW9mK[] = {
/* columns rows colors chars-per-pixel */
"64 64 192 2 ",
"   c #76293C",
".  c #7D253E",
"X  c #772B47",
"o  c #772B49",
"O  c #792E4C",
"+  c #753647",
"@  c #7E3444",
"#  c #723847",
"$  c #77364A",
"%  c #7D344C",
"&  c #7A3B4A",
"*  c #7E3551",
"=  c #7E3A53",
"-  c #9D213D",
";  c #DF0016",
":  c #D70218",
">  c #DD041B",
",  c #D90B1F",
"<  c #D30D1E",
"1  c #ED0B0C",
"2  c #FB0506",
"3  c #F70F00",
"4  c #FD0D02",
"5  c #F5050D",
"6  c #FF060F",
"7  c #F50B0C",
"8  c #FC0A0C",
"9  c #F10205",
"0  c #E61D06",
"q  c #E91C03",
"w  c #EF170A",
"e  c #EC190E",
"r  c #F61000",
"t  c #F5150D",
"y  c #E40014",
"u  c #EE0616",
"i  c #EC0E13",
"p  c #E5031A",
"a  c #EB021B",
"s  c #EF0D1B",
"d  c #F70416",
"f  c #FF0611",
"g  c #F40B13",
"h  c #FE0A13",
"j  c #F50619",
"k  c #FF061A",
"l  c #F50C1C",
"z  c #FF0C1D",
"x  c #EE1415",
"c  c #EC1812",
"v  c #F41414",
"b  c #FB1115",
"n  c #F3121B",
"m  c #FF141C",
"M  c #F4181F",
"N  c #FF181F",
"B  c #D50C23",
"V  c #DB1123",
"C  c #CA1C33",
"Z  c #CD1E3F",
"A  c #D31E3E",
"S  c #E50520",
"D  c #EC0624",
"F  c #E40B24",
"G  c #EA0C24",
"H  c #E70E2D",
"J  c #E80C28",
"K  c #FE0624",
"L  c #F40D22",
"P  c #FD0B23",
"I  c #F5072B",
"U  c #FE062B",
"Y  c #F30D2B",
"T  c #FB0A2C",
"R  c #F00523",
"E  c #E51323",
"W  c #ED1326",
"Q  c #E61028",
"!  c #F41122",
"~  c #FE1322",
"^  c #FF1A20",
"/  c #FF0532",
"(  c #F00830",
")  c #FF013A",
"_  c #C62436",
"`  c #CC2137",
"'  c #C7273F",
"]  c #CE2039",
"[  c #872D47",
"{  c #822E48",
"}  c #843345",
"|  c #83334D",
" . c #8C354D",
".. c #843B4D",
"X. c #9E344A",
"o. c #823553",
"O. c #863A56",
"+. c #8A3B52",
"@. c #853A58",
"#. c #BA3047",
"$. c #CE1D42",
"%. c #CF2F47",
"&. c #CE2546",
"*. c #D42344",
"=. c #D72B47",
"-. c #D7264B",
";. c #DB244B",
":. c #D52C4C",
">. c #DD2C4C",
",. c #CF374C",
"<. c #CE394D",
"1. c #D4324B",
"2. c #DB314B",
"3. c #CC3651",
"4. c #EA2749",
"5. c #E22D4A",
"6. c #E62D4A",
"7. c #7EBABB",
"8. c #36DFD8",
"9. c #3CDFDA",
"0. c #2EEFDE",
"q. c #3DE7DC",
"w. c #32ECDE",
"e. c #38EADC",
"r. c #07ECEF",
"t. c #0AE9EE",
"y. c #01FEEF",
"u. c #0EFCED",
"i. c #1AF6EF",
"p. c #10F8E8",
"a. c #1CFFEF",
"s. c #06EEF0",
"d. c #00EBFF",
"f. c #0CEDF3",
"g. c #1CEFFF",
"h. c #02FFF5",
"j. c #0BFEF3",
"k. c #03F6FF",
"l. c #0EF6FE",
"z. c #01FFFF",
"x. c #0AFBFE",
"c. c #09F1F3",
"v. c #15F6F3",
"b. c #12FAF2",
"n. c #14F4FE",
"m. c #1AF0FF",
"M. c #12F9FE",
"N. c #18FFF9",
"B. c #2EE9E2",
"V. c #34EEE4",
"C. c #33EAEB",
"Z. c #38EFED",
"A. c #39EDE2",
"S. c #35F2E4",
"D. c #3AF1E4",
"F. c #36F1EB",
"G. c #3AF2EE",
"H. c #3AF4F1",
"J. c #54DECF",
"K. c #77CEC6",
"L. c #7ACBC5",
"P. c #77C7CE",
"I. c #74CBCC",
"U. c #7ACACA",
"Y. c #77CBD6",
"T. c #7BCBD5",
"R. c #7ED1D5",
"E. c #41E9DC",
"W. c #5BE5D5",
"Q. c #44EAE4",
"!. c #49EAE1",
"~. c #41F1E1",
"^. c #4AF3EC",
"/. c #B39CA4",
"(. c #8AAFB8",
"). c #85B2B8",
"_. c #88B7BD",
"`. c #89B8BE",
"'. c #82BABB",
"]. c #92B2BD",
"[. c #CAA6B2",
"{. c #8ABCC7",
"}. c #8CBAC9",
"|. c #93B5C6",
" X c #92BCCB",
".X c #99BECE",
"XX c #9CB8C3",
"oX c #87C5C4",
"OX c #84C9C6",
"+X c #8BCCCB",
"@X c #93C0C6",
"#X c #93C1D0",
/* pixels */
"6 f 6 6 f 6 6 f f 6 6 f f 6 f f h 8 h 8 f g h d h h k k z k j k k z k k k z k k f k k k k k k f 3 3 6 k U ( H E i 7 2 8 u B <.- ",
"6 6 6 6 6 6 6 6 6 f f 6 6 f f 6 6 h f h h h k h h h k h k k h k k k z k k k k k k k k k k k k f 3 3 6 k I I D G g 9 6 k E &.  [.",
"6 6 f 6 6 6 6 6 f f 6 f 6 6 6 h h h h h h h h z h z z d k z h k k k k k k k k k k k k k k k k f f f f K K j l s 5 m k p *.% OXW.",
"f f 6 f f 6 f f f f f f f h f 6 8 h h 8 h h h h z h h h h k z k k k k k k k z k k k k k k k k k k k k j k z g v h k D $.X  X^.p.",
"f 6 f f 6 f f 6 f 6 h 6 f f h 6 h h h h h h z h h h z h z k z z k k k k k k P k k k k k k k k k K I K k g 7 8 f k y $.@.T.V.f.x.",
"6 f 6 6 f 6 6 6 h h f f h f f h h h h h z h h h h h h k z z k z k k k z k k k k k k k k k k k K I I K k 7 7 2 f y =.O }.H.z.z.z.",
"f f f h f h 6 h h f f h h h h h b h h h h h h z z h z z k k h z z k k k k k k k f k k k k k k k D J s g 2 2 f l A +.R.0.s.x.x.k.",
"f f f f h 6 h 6 8 h h h f f 8 h h h h h h h h z h z k h z z z k k k k k k k z k k k k k k k k z G s s g 6 f L C +.).V.x.z.k.k.l.",
"h h h f h h h f f h h h 6 h f h h h h h h h h h z h z k k z h z K k z k k k k k k k k k k k f d n g g f d a 6.@ K.w.j.z.l.n.n.n.",
"6 f 8 h 6 f 8 h 6 h 8 6 h 8 f 8 f h 8 h h h z h z z h z z z P z z k k k h k k k k k k k k k k k b 5 h P Y *.  @Xw.y.z.x.x.l.n.l.",
"h h h 8 h h h 8 h 8 h h h 8 h h b h h h h h z h h z z h z h h P k P k k k k k k k k k k k k k f 2 h k a *.| K.V.p.z.x.x.x.h.h.j.",
"8 h h h h 8 h h h h h h h h h h h h h h h h h z z h z h z P z z k k z k k k k k k k k k k k k k f h D $.o  XG.y.z.z.x.x.z.z.h.z.",
"h h b h h h 8 h h h h h h h h h h h h h h h h z h z z h z z z k z k k k k k k k k k k k k k k k ~ : Z o.R.C.c.z.x.l.x.x.x.h.z.h.",
"h h h h h b h h h h h 8 h h h h b h b h b h z h z h z z z z z z k k z K k k k k k k k k k k k l > ,.% |.F.k.z.x.l.l.z.z.h.z.x.z.",
"h h h h h h h h h h h b h h b 8 b h b h z h h m h z h z z z z z P z k k k k k k k k k k k d k G ] } OX8.r.z.x.d.l.n.j.h.z.z.x.l.",
"b h 8 h h h h h 8 b h h h h h h h z h h z m z z z h z z h z z z f h h k P K l k d k f k k z L C +.(.E.N.x.z.k.x.l.l.h.h.z.z.x.x.",
"f h h h z h b h b z h z h b b h z m z z m z z z z z z z z z z h 4 4 f K U Y J E M 1 2 h z > 6. .T.C.v.z.z.z.z.z.x.z.z.z.z.z.z.z.",
"h h g h h g h z h h b h b h h h z z z z P z z z z z P z z P z b 4 4 h k T J Q E i 7 m 5 > 1.} ].C.z.z.z.z.z.z.z.z.z.z.z.z.z.z.z.",
"g z h h h z h m h z b z z z h z z z z z P z z P ~ z z P z P z z h h z l K K z g d m k D =.$ L.e.v.z.z.z.z.z.z.z.z.z.z.z.z.z.z.z.",
"h g h z h h z h m h z h z h m z z P z P z z z z z z z z z z z z z z L k z k k h z d D :.* {.V.y.z.z.z.z.z.z.z.z.z.z.z.z.z.z.z.z.",
"z h g h z z z h z h m z h z z z z z z z z P z z z z P z z z z ~ U U K z g b 2 f k D ;.* I.F.l.z.z.z.z.z.z.z.z.z.z.z.z.z.z.z.z.z.",
"h h z z h m h z z h z h z m h z z z P z z z z z z z z z z z P P T U K k 8 t 8 h y 2.% }.Z.z.z.k.z.z.z.z.z.z.z.z.z.z.z.z.z.z.z.z.",
"z m z h z z m z z m z z m z m z z z P z z z P z P z z P P z z P T T P g 8 8 f s =.+ I.Z.n.x.l.n.x.z.z.z.z.z.z.z.z.z.z.z.z.z.z.z.",
"g z z h z z m z z b z m z z z z z P z z z P m z z z z z z z P P L ! n g f f L C & 7.S.z.z.x.n.k.z.z.z.z.z.z.z.z.z.z.z.z.z.z.z.z.",
"z z z m z z ~ z z z m z z m z z m P z m P m P P m z z P z z k l ! c g m z a 4. .L.0.j.z.x.k.x.l.z.z.z.z.z.z.z.z.z.z.z.z.z.z.z.z.",
"z z z z z z z z m P z P P z P m P z z P z z z z P z z z z z P h 1 v ~ j D 5.[ ].w.y.z.x.x.x.x.h.z.z.z.z.z.z.z.z.z.z.z.z.z.z.z.z.",
"P m z z z z z z P z m z z m z P z P P z z P P z z ~ z z z z z z 8 m h D ;.| U.V.b.z.x.x.z.z.h.z.z.z.z.z.z.z.z.z.z.z.z.z.z.z.z.z.",
"z z z z m z z z m z m P P m z m z m P z ~ z z P P z z P P z z h m d R >.o. XV.h.z.z.x.x.x.z.h.h.z.z.z.z.z.z.z.z.z.z.z.z.z.z.z.z.",
"z z P z z z z z P z z z P m z z P m P z P z z m z z z z z z z z P D 4.| P.H.n.z.z.z.z.x.x.h.z.z.z.z.z.z.z.z.z.z.z.z.z.z.z.z.z.z.",
"z z z z P z z P P z P z z P P z z P z m P m P z m P z z P z z L S 2.{ |.F.z.z.k.k.x.z.h.j.x.z.z.z.z.z.z.z.z.z.z.z.z.z.z.z.z.z.z.",
"P z z z z z P z z z P ~ z m P P z m P P z P z P P z z z z z z W 2.} OXQ.l.z.l.n.n.n.l.j.h.z.z.k.z.z.z.z.z.z.z.z.z.z.z.z.z.z.z.z.",
"z z P z z z m z m P z z P z z m b n z z P P P ~ z m z z z ! W _ & `.D.b.z.x.x.l.m.n.j.h.z.z.z.z.z.z.z.z.z.z.z.z.z.z.z.z.z.z.z.z.",
"z z z z P z z z z z z z z z z b 0 q g z U / T P m 8 2 N n < 2...Y.C.b.z.z.z.x.x.x.x.z.z.z.z.z.z.z.z.z.z.z.z.z.z.z.z.z.z.z.z.z.z.",
"z P z z z z z P z z P z z P z v 0 q b z T T T P g m m g V <.} ].C.z.z.z.z.z.z.z.z.z.z.z.z.z.z.z.z.z.z.z.z.z.z.z.z.z.z.z.z.z.z.z.",
"z P z P m z z z P z P z z P z z b b z P P U ! M g ^ z D :.% oXE.v.z.z.z.z.z.z.z.z.z.z.z.z.z.z.z.z.z.z.z.z.z.z.z.z.z.z.z.z.z.z.z.",
"z z z z z P z z z z z z z z z P K P P ~ P z n n ^ s F :.o. X!.v.j.z.z.z.z.z.z.z.z.z.z.z.z.z.z.z.z.z.z.z.z.z.z.z.z.z.z.z.z.z.z.z.",
"z z z z P z z P z z z z z z z P U U P P v c v v z D :.* I.F.n.k.z.z.z.z.z.z.z.z.z.z.z.z.z.z.z.z.z.z.z.z.z.z.z.z.z.z.z.z.z.z.z.z.",
"z P P z z z z z P z P z P m z P U / U z c e t b p 2.* }.F.k.z.z.z.z.z.z.z.z.z.z.z.z.z.z.z.z.z.z.z.z.z.z.z.z.z.z.z.z.z.z.z.z.z.z.",
"z P z z z z z z z z m z z z z P T T ! n v t h ! 5.@ I.F.l.z.k.z.z.z.z.z.z.z.z.z.z.z.z.z.z.z.z.z.z.z.z.z.z.z.z.z.z.z.z.z.z.z.z.z.",
"z z z z P z z P z z P z z P z P P ! M v b M ! ` .._.F.h.x.x.h.k.z.z.z.z.z.z.z.z.z.z.z.z.z.z.z.z.z.z.z.z.z.z.z.z.z.z.z.z.z.z.z.z.",
"z z z z P z z P z z l z z k z l ~ g g N h p 2...K.w.v.x.x.l.k.z.z.z.z.z.z.z.z.z.z.z.z.z.z.z.z.z.z.z.z.z.z.z.z.z.z.z.z.z.z.z.z.z.",
"m P z z z z z z z z P z z z z P 8 b N l F 2.@ _.w.j.x.l.n.x.z.z.z.z.z.z.z.z.z.z.z.z.z.z.z.z.z.z.z.z.z.z.z.z.z.z.z.z.z.z.z.z.z.z.",
"z z z P z z z z z k z P k z z h 8 m z J >.* I.D.i.x.m.n.x.z.h.z.z.z.z.z.z.z.z.z.z.z.z.z.z.z.z.z.z.z.z.z.z.z.z.z.z.z.z.z.z.z.z.z.",
"z P z z P z z P z z z k P z z h N g G :.*  XF.h.z.n.n.n.z.z.h.h.z.z.z.z.z.z.z.z.z.z.z.z.z.z.z.z.z.z.z.z.z.z.z.z.z.z.z.z.z.z.z.z.",
"z z z z z z z P k z l z z z k z n V =.o.Y.F.v.k.l.x.x.h.h.x.z.z.z.z.z.z.z.z.z.z.z.z.z.z.z.z.z.z.z.z.z.z.z.z.z.z.z.z.z.z.z.z.z.z.",
"z P z z z z m z z z z z k z z L B <.% |.Z.z.z.k.l.l.z.z.z.h.x.x.z.z.z.z.z.z.z.z.z.z.z.z.z.z.z.z.z.z.z.z.z.z.z.z.z.z.z.z.z.z.z.z.",
"z P z z P z z P z z z z z z z W 1.@ oX!.n.z.z.x.z.z.h.h.z.l.g.n.x.z.z.z.z.z.z.z.z.z.z.z.z.z.z.z.z.z.z.z.z.z.z.z.z.z.z.z.z.z.z.z.",
"b b z P P P P P P z h z l ! W ` ..].E.v.k.z.z.k.z.z.z.h.z.x.g.g.x.z.z.z.z.z.z.z.z.z.z.z.z.z.z.z.z.z.z.z.z.z.z.z.z.z.z.z.z.z.z.z.",
"0 w h P U ) T Y N 7 6 m l , 5.+.T.C.v.h.x.z.z.z.z.z.z.z.z.z.x.x.z.z.z.z.z.z.z.z.z.z.z.z.z.z.z.z.z.z.z.z.z.z.z.z.z.z.z.z.z.z.z.z.",
"q t z P U ) T Y g g m z V <.} ].C.z.z.z.z.z.z.z.z.z.z.z.z.z.z.z.z.z.z.z.z.z.z.z.z.z.z.z.z.z.z.z.z.z.z.z.z.z.z.z.z.z.z.z.z.z.z.z.",
"g h z P U U P P h P k J :.& L.~.v.z.z.z.z.z.z.z.z.z.z.z.z.z.z.z.z.z.z.z.z.z.z.z.z.z.z.z.z.z.z.z.z.z.z.z.z.z.z.z.z.z.z.z.z.z.z.z.",
"U P P Y P z z z ~ d D :.=  XD.j.z.z.z.z.z.z.z.z.z.z.z.z.z.z.z.z.z.z.z.z.z.z.z.z.z.z.z.z.z.z.z.z.z.z.z.z.z.z.z.z.z.z.z.z.z.z.z.z.",
"/ / U P n c v g P D ;.* I.F.n.z.z.z.z.z.z.z.z.z.z.z.z.z.z.z.z.z.z.z.z.z.z.z.z.z.z.z.z.z.z.z.z.z.z.z.z.z.z.z.z.z.z.z.z.z.z.z.z.z.",
") / U P x c w M > 1.% {.F.z.x.z.z.z.z.z.z.z.z.z.z.z.z.z.z.z.z.z.z.z.z.z.z.z.z.z.z.z.z.z.z.z.z.z.z.z.z.z.z.z.z.z.z.z.z.z.z.z.z.z.",
") U P m x v v E 1.# I.Z.v.x.k.x.x.z.z.z.z.z.z.z.z.z.z.z.z.z.z.z.z.z.z.z.z.z.z.z.z.z.z.z.z.z.z.z.z.z.z.z.z.z.z.z.z.z.z.z.z.z.z.z.",
"U P L n g n W _ & '.S.h.l.l.x.l.z.z.z.z.z.z.z.z.z.z.z.z.z.z.z.z.z.z.z.z.z.z.z.z.z.z.z.z.z.z.z.z.z.z.z.z.z.z.z.z.z.z.z.z.z.z.z.z.",
"n i i n d a 6.} L.e.i.x.x.x.x.z.z.z.z.z.z.z.z.z.z.z.z.z.z.z.z.z.z.z.z.z.z.z.z.z.z.z.z.z.z.z.z.z.z.z.z.z.z.z.z.z.z.z.z.z.z.z.z.z.",
"v 1 l n Y *.[ XXq.u.n.x.x.z.z.z.z.z.z.z.z.z.z.z.z.z.z.z.z.z.z.z.z.z.z.z.z.z.z.z.z.z.z.z.z.z.z.z.z.z.z.z.z.z.z.z.z.z.z.z.z.z.z.z.",
"2 b z F -.| U.A.i.M.n.n.z.h.h.h.z.z.z.z.z.z.z.z.z.z.z.z.z.z.z.z.z.z.z.z.z.z.z.z.z.z.z.z.z.z.z.z.z.z.z.z.z.z.z.z.z.z.z.z.z.z.z.z.",
"h z Y &.O #XG.y.x.x.n.n.j.h.y.h.z.z.z.z.z.z.z.z.z.z.z.z.z.z.z.z.z.z.z.z.z.z.z.z.z.z.z.z.z.z.z.z.z.z.z.z.z.z.z.z.z.z.z.z.z.z.z.z.",
"~ > Z O.T.V.s.z.z.z.x.h.h.h.h.z.z.z.z.z.z.z.z.z.z.z.z.z.z.z.z.z.z.z.z.z.z.z.z.z.z.z.z.z.z.z.z.z.z.z.z.z.z.z.z.z.z.z.z.z.z.z.z.z.",
"B 1.[ |.F.z.z.z.z.z.z.h.h.j.x.x.z.z.z.z.z.z.z.z.z.z.z.z.z.z.z.z.z.z.z.z.z.z.z.z.z.z.z.z.z.z.z.z.z.z.z.z.z.z.z.z.z.z.z.z.z.z.z.z.",
"#...+X9.t.x.x.k.x.z.h.y.h.x.n.n.z.z.z.z.z.z.z.z.z.z.z.z.z.z.z.z.z.z.z.z.z.z.z.z.z.z.z.z.z.z.z.z.z.z.z.z.z.z.z.z.z.z.z.z.z.z.z.z.",
"X./.J.a.x.k.x.x.l.h.h.y.h.x.n.n.x.z.z.z.z.z.z.z.z.z.z.z.z.z.z.z.z.z.z.z.z.z.z.z.z.z.z.z.z.z.z.z.z.z.z.z.z.z.z.z.z.z.z.z.z.z.z.z."
};
