/* XPM */
static char *_b3b34d7d5a248298fa87aeffa41d91cGWvwHkiCDcArK2T5[] = {
/* columns rows colors chars-per-pixel */
"64 64 168 2 ",
"   c #E50305",
".  c #E60406",
"X  c #E70507",
"o  c #E80306",
"O  c #E90407",
"+  c #EA0407",
"@  c #E7040B",
"#  c #EE0308",
"$  c #EA0508",
"%  c #EB0508",
"&  c #EA050A",
"*  c #EB060B",
"=  c #ED0408",
"-  c #EF0409",
";  c #EE0509",
":  c #EC0609",
">  c #EC050B",
",  c #EF060A",
"<  c #E8050C",
"1  c #EA050C",
"2  c #EB060D",
"3  c #EC050D",
"4  c #ED060C",
"5  c #EE070D",
"6  c #EF050E",
"7  c #ED060E",
"8  c #F7030B",
"9  c #F1040A",
"0  c #F0050A",
"q  c #F2050B",
"w  c #F1060B",
"e  c #F2060A",
"r  c #F40508",
"t  c #F50508",
"y  c #F50609",
"u  c #F60609",
"i  c #F4050A",
"p  c #F5040B",
"a  c #F4050B",
"s  c #F6050B",
"d  c #F5060B",
"f  c #F7070A",
"g  c #F1060D",
"h  c #F0070D",
"j  c #F3060C",
"k  c #F1050F",
"l  c #F0060F",
"z  c #F3060E",
"x  c #F2070E",
"c  c #F6050C",
"v  c #F5060C",
"b  c #F4070D",
"n  c #F7060C",
"m  c #F7060D",
"M  c #F6070D",
"N  c #F5050E",
"B  c #F6050E",
"V  c #F4070F",
"C  c #F7060F",
"Z  c #FA050A",
"A  c #F9060A",
"S  c #FB060B",
"D  c #FA070B",
"F  c #F8040C",
"G  c #F9040C",
"H  c #F9050D",
"J  c #FA050C",
"K  c #FA050D",
"L  c #F9060C",
"P  c #F8070D",
"I  c #FB060D",
"U  c #FA070D",
"Y  c #F9050F",
"T  c #F8070E",
"R  c #FA060E",
"E  c #FB060E",
"W  c #FB070F",
"Q  c #FC070C",
"!  c #FD070C",
"~  c #FD060E",
"^  c #FC070E",
"/  c #FC070F",
"(  c #FE070F",
")  c #F8080B",
"_  c #FD080D",
"`  c #FE080D",
"'  c #FD080F",
"]  c #FF090E",
"[  c #F20610",
"{  c #F30610",
"}  c #F30711",
"|  c #F50510",
" . c #F60410",
".. c #F70511",
"X. c #F40711",
"o. c #F60611",
"O. c #F70712",
"+. c #F80410",
"@. c #F90511",
"#. c #F80710",
"$. c #FA0610",
"%. c #FB0711",
"&. c #F80612",
"*. c #F90713",
"=. c #FA0612",
"-. c #FB0713",
";. c #FC0611",
":. c #FE0710",
">. c #FD0712",
",. c #FE0712",
"<. c #FD0714",
"1. c #F50913",
"2. c #F60913",
"3. c #F60A14",
"4. c #F70A14",
"5. c #F70B15",
"6. c #F80813",
"7. c #FD0810",
"8. c #FF0810",
"9. c #FF0811",
"0. c #FE0911",
"q. c #FC0812",
"w. c #FD0913",
"e. c #FF0912",
"r. c #FE0813",
"t. c #FF0A12",
"y. c #F90914",
"u. c #FA0814",
"i. c #FB0915",
"p. c #F80B15",
"a. c #FA0A15",
"s. c #FB0917",
"d. c #FA0A17",
"f. c #FC0814",
"g. c #FD0915",
"h. c #FF0914",
"j. c #FE0A14",
"k. c #FF0A15",
"l. c #FC0A16",
"z. c #FD0B17",
"x. c #FE0A16",
"c. c #FF0A17",
"v. c #FF0B17",
"b. c #FF0C16",
"n. c #FE0D16",
"m. c #FE0918",
"M. c #FC0A18",
"N. c #FD0B19",
"B. c #FF0A19",
"V. c #FE091A",
"C. c #FE091B",
"Z. c #FF0B1A",
"A. c #FC0C19",
"S. c #FE0C18",
"D. c #FF0C18",
"F. c #FF0D19",
"G. c #FE0C1A",
"H. c #FF0D1B",
"J. c #FE0E1B",
"K. c #FE0B1D",
"L. c #FE0C1C",
"P. c #FE0D1D",
"I. c #FF0D1D",
"U. c #FF0E1C",
"Y. c #FF0C1E",
"T. c #FE0D1E",
"R. c #FF0E1E",
"E. c #FF0E1F",
/* pixels */
"K.K.K.K.K.K.K.K.K.K.K.K.K.K.K.L.L.J.Z.A.Z.Z.J.A.A.A.Z.s.s.A.s.s.4.4.3.3.3.3.3.} } } } } } } } } [ [ [ z l 6 2 7 2 2 2 2 @ < @ @ ",
"K.K.K.K.K.K.K.K.K.K.K.K.K.K.K.L.K.A.Z.J.A.J.Z.Z.Z.A.Z.i.Z.s.s.s.4.4.3.4.3.3.3.3.} } } } } } } } [ [ 6 [ l 6 l 2 3 3 2 @ < < @ @ ",
"K.K.K.K.K.K.K.K.K.K.K.K.K.K.K.L.J.Z.J.Z.Z.A.Z.A.s.A.A.A.A.s.s.A.5.5.4.4.3.3.} 3.} } } } } } } } [ [ [ k l 6 7 7 3 3 2 3 < < @ @ ",
"K.K.K.K.K.K.K.K.K.K.K.K.K.K.K.L.K.Z.A.Z.Z.J.Z.J.Z.A.Z.s.s.s.s.4.5.5.4.4.3.3.} 3.} } } } } } } } [ [ k k l l 7 7 3 3 2 3 < < @ @ ",
"K.K.K.K.K.K.K.K.K.K.K.K.K.K.K.L.K.J.Z.A.Z.J.Z.J.Z.A.Z.s.A.s.s.s.i.4.4.4.3.4.4.} O.[ } [ [ 2.O.[ [ [ k k 6 6 l 2 3 3 2 2 < < @ @ ",
"K.K.K.K.K.K.K.K.K.K.K.K.K.K.K.L.A.Z.Z.J.A.Z.A.Z.s.A.Z.s.A.s.s.s.i.4.4.4.3.} 4.4.[ 2.2.z O.} [ O.[ [ k k l 6 2 l 3 3 2 @ < < @ @ ",
"K.K.K.K.K.K.K.K.K.K.K.K.K.K.K.L.L.J.Z.J.Z.J.Z.A.Z.A.s.A.s.s.s.A.p.5.4.4.i.1.1.1.[ } } [ [ } [ [ [ [ k k l 6 6 2 3 3 2 3 < < @ @ ",
"K.K.K.K.K.K.K.K.K.K.K.K.K.K.K.L.L.Z.A.Z.A.Z.J.Z.Z.A.Z.s.s.Z.s.s.i.5.4.4.4.1.1.1.O.[ 2.O.[ 2.O.[ [ [ k k l 6 2 6 3 3 2 2 < < @ @ ",
"Y.Y.Y.Y.Y.Y.Y.Y.L.L.Y.Y.Y.Y.Y.L.T.A.Z.A.Z.J.Z.A.Z.s.A.Z.A.s.s.s.p.i.i.i.i.2.=.6.O.O.O.O.O.O. .[ [ [ k [ l 6 7 7 3 3 2 @ 2 < @ @ ",
"Y.Y.Y.Y.Y.Y.Y.Y.Y.Y.Y.Y.Y.Y.Y.Y.Z.Z.J.Z.A.Z.J.Z.A.A.Z.s.s.Z.s.s.i.p.i.4.6.O.2.6.O.O.O.O. .O.| | [ [ k 6 l l 7 7 3 3 2 2 @ < @ @ ",
"Y.Y.Y.Y.Y.Y.Y.Y.Y.Y.Y.Y.Y.Y.Y.L.K.J.Z.A.Z.A.Z.A.Z.A.A.s.s.Z.s.s.i.i.i.6.s.O.=.O.=.+.O. . .O.N O.[ [ l [ l 6 7 7 3 3 2 @ < < @ @ ",
"Y.Y.Y.Y.Y.Y.Y.Y.Y.Y.Y.Y.Y.Y.Y.Y.A.Z.J.Z.J.Z.J.Z.Z.s.Z.s.A.s.s.s.i.i.6.i.i.O.=.s.O.O.=.O. . . . .[ [ [ l l 6 7 7 3 3 2 3 < < @ @ ",
"Y.Y.Y.Y.Y.Y.Y.Y.Y.Y.Y.Y.Y.Y.Y.L.K.J.Z.J.Z.A.Z.A.A.s.Z.s.A.s.s.s.i.i.i.=.i.O.=.O.O.+.O. .O. . . .[ [ 6 | l 6 6 2 < 6 6 < < < @ @ ",
"Y.Y.Y.Y.Y.Y.Y.Y.Y.Y.Y.Y.Y.Y.Y.E.K.J.A.Z.Z.J.Z.Z.Z.A.Z.A.i.A.s.s.i.i.6.=.=.s.i.=.O.=.=. .O.+. .O.O.z 6 6 6 6 2 6 6 2 2 < < < @ @ ",
"Y.Y.Y.Y.Y.Y.Y.Y.Y.Y.Y.Y.Y.Y.Y.L.A.Z.Z.A.J.A.A.Z.Z.A.A.s.i.A.i.i.v.v.=.v.6.=.=.=.=.=.=.+.+.+.+. .[ [ | 6 6 6 2 6 < 6 2 < < < @ @ ",
"Y.Y.Y.Y.Y.Y.Y.Y.Y.Y.Y.Y.Y.Y.Y.Y.K.J.Z.J.Z.Z.Z.Z.A.Z.Z.<.v.v.v.r.i.r.>.=.v.Y v.Y =.=.=.Y +.=.+. .[ l | 6 z 6 6 6 6 < 6 @ 2 < @ @ ",
"E.Y.T.T.T.T.T.T.E.E.E.E.E.E.E.E.J.E.L.E.J.J.v.v.Z.v.v.r.v.>.r.r.r.] >.r.r.Y =.] =.Q V ) Y b Y b [ z O.z x z 6 x 5 5 < 5 , < < % ",
"L.E.T.T.T.T.T.T.E.E.E.E.E.E.E.E.E.E.E.L.J.J.J.b.<.v.v.>.r.r.r.r.r.r.>.Q ] >.Q =.Y Y P Y b Y d b O.z z z x w h w 5 x 5 * < , % < ",
"E.T.T.T.T.T.T.T.E.E.E.E.E.E.E.E.J.E.J.L.J.J.v.v.v.v.v.>.r.r.r.] ] >.>.>.Q >.Y ] Y ] Y d Y L b d b z x z x h w x h h , 6 < , , < ",
"Y.E.T.T.T.T.T.T.E.E.E.E.E.E.E.E.E.E.J.L.Z.Z.v.J.v.v.r.v.r.] ] r.] r.Q ] r.Y >.Q Y Y Y d Y d d b b 2.x z x 6 z 6 h h , 2 , , < + ",
"T.T.T.T.T.T.T.T.E.E.E.E.E.E.E.E.E.E.L.L.J.Z.v.b.<.v.v.>.r.r.r.r.>.>.Q >.=.P r.>.Y L P b d Y d d O.z V z x z , z 5 5 2 , < , @ , ",
"T.T.T.T.T.T.T.T.E.E.E.E.E.E.E.E.E.E.E.L.J.Z.v.J.v.v.v.>.r.r.] ] r.] Q >.] ] Q Q _ Y P Y Y d d d 2.x V z x z x 6 x 6 , 6 , @ < @ ",
"T.T.T.T.T.T.T.T.E.E.E.E.E.E.E.E.E.E.L.L.J.Z.v.J.v.v.b.t.] r.] r.] r.>.>.r.Y Y ] Y Q P Y d Y b d z V V z x z 6 z 5 x < , > , % < ",
"T.T.T.T.T.T.T.T.E.E.E.E.E.E.E.E.J.E.L.K.J.J.v.v.v.v.v.r.t.r.r.r.>.r.>.Q ] Y ] ] Y Y V ) Y Y d b z V V z x , z , x 5 6 , > @ , % ",
"E.E.E.E.E.E.E.E.E.E.E.E.E.E.E.E.L.L.L.L.Z.A.v.v.v.v.v.>.r.t.r.] r.] >.Q >.Q >.Q Y Y P Y V L b d V V 2.z x z h 6 5 h , 2 < , < < ",
"E.E.E.E.E.E.E.E.E.E.E.E.E.E.E.E.E.J.L.L.i.Z.<.v.<.Z.v.>.] r.] r.r.>.>.Q r.Q Q >.Q Y P P b L d b V x z z x z w z h h 5 * , < < % ",
"E.E.E.E.E.E.E.E.E.E.E.E.E.E.E.E.L.E.L.L.A.A.v.v.v.v.v.>.r.r.r.] ] ] >.>.r.Y >.Q Q =.P d Y ) d d V V x z x , h w h h , 6 , < % , ",
"E.E.E.E.E.E.E.E.E.E.E.E.E.E.E.E.E.L.L.L.Z.A.>.i.v.v.v.r.r.r.] r.>.r.Q >.] >.Q >.P Y P L d Y d b V V x z x z 6 z h h , 2 < , + < ",
"E.E.E.E.E.E.E.E.E.E.E.E.E.E.E.E.L.E.L.L.A.Z.v.v.<.Z.r.r.r.r.] r.>.] >.Q ] >.Q >.Y Y P Y b L d b V V V z x , z w 5 6 < 6 , > @ < ",
"E.E.E.E.E.E.E.E.E.E.E.E.E.E.E.E.L.J.K.K.A.A.<.v.v.v.v.r.r.t.r.] r.>.>.>.6.Q >.Q ] Y P b Y Y b d V V V z x x 6 x x z , 2 > > @ , ",
"E.E.E.E.E.E.E.E.E.E.E.E.E.E.E.E.L.E.J.A.Z.Z.v.v.<.v.>.r.t.t.r.r.] >.Q >.] ] Y ] Q Y P Y d Y d b V V V z x 6 z z 5 h 2 , , @ + < ",
"E.E.E.E.E.E.E.E.E.E.E.E.E.E.E.E.E.L.J.J.A.i.v.i.Z.v.v.r.r.] ] r.>.] >.] =.Y ] Y Y P P d L d d d V V V z x z , w h h , , > , < , ",
"Y.Y.Y.Y.L.L.L.E.L.J.Z.J.J.J.J.b.J.J.J.b.J.p.v.b.t.t.t.r.>.>.Q >.r.] Q ] Q Q Q Q _ A ) u ) ) ) h w d w w , > r > r > + + : + + + ",
"Y.Y.Y.Y.E.J.E.L.L.J.J.J.J.p.b.n.J.J.Z.J.v.b.r.t.t.t.t.t.] Q >.Q ] ] ] ! ] Q Q Q A _ ) ) u ) u u d w w d z r > r # > 5 + + : + + ",
"Y.Y.L.Y.L.E.L.E.L.E.J.b.b.J.n.n.J.J.v.i.v.i.b.6.t.t.r.] Q >.Q >.] ] ! ] Q Q Q Q A ) ) ) ) u r u b w w r w > > r , # % + + * + X ",
"Y.Y.L.L.E.L.L.J.J.J.J.b.J.b.n.n.J.J.J.b.A.b.r.b.t.t.r.r.r.Q >.Q ] ] ] ! ] Q Q Q A _ ) u u ) r h d w k r , 6 r > % w , + $ + + + ",
"Y.Y.Y.Y.L.E.L.E.J.J.J.b.J.b.b.b.J.J.v.p.J.i.v.t.t.t.t.r.] >.Q >.] ] ! ] Q ] L ! A ) ) ) A u 9 u z w k r 6 > 6 r : 9 : : $ + + + ",
"Y.Y.Y.Y.L.J.E.L.E.J.J.J.J.b.b.b.J.J.v.J.i.b.r.r.t.t.t.] >.Q >.Q ] ] ] ! ] Y L ! A _ ) u u u u u z d r r , r r > 9 % : $ $ : + + ",
"Y.Y.Y.Y.L.E.L.L.L.J.b.J.J.b.n.n.J.J.J.v.J.i.b.t.t.t.t.t.] >.Q >.] ] ! ] ! ! ! ! _ u ) u u A u u w w r k z r > r : % : + $ $ + X ",
"Y.Y.Y.Y.E.L.E.J.E.J.J.b.J.b.n.n.J.L.b.v.b.b.6.t.t.t.t.r.r.Q >.Q ] ] ] ! ] L _ ! u _ ) _ u u u u d z k r , > r > : 9 5 $ $ + + + ",
"Y.Y.Y.Y.L.E.L.E.A.Z.J.J.b.J.n.n.J.J.J.i.i.i.r.6.t.t.t.r.] ] Q >.! ] ! ! ! Z Z Z L Z u u u r r r w d w w h 9 5 r 9 : : : + : o o ",
"Y.Y.Y.Y.E.L.E.L.Z.J.v.i.v.v.p.b.J.i.i.i.i.v.v.t.t.t.t.] ] 6.>.Q ] ! ! ! Z ! Z Z Z Z d u u r r r d w d w 9 w % 9 : 9 : + : + + + ",
"Y.Y.Y.Y.L.L.L.E.Z.Z.v.J.p.J.b.b.A.A.i.J.v.v.r.6.t.t.t.t.] >.Q >.! ] ! ! Z L Z Z Z Z u u u r r r w d h u h 9 w 9 % 9 : : $ $ + + ",
"Y.Y.Y.Y.E.J.E.L.J.J.i.b.J.v.b.b.A.A.i.i.i.p.t.r.t.t.t.r.>.Q >.Q ] ! ! ! ! L Z Z u u _ u u r r r w z 9 h r 9 % 9 9 : : + $ $ + + ",
"Y.Y.Y.Y.L.E.J.L.Z.J.v.b.b.b.n.n.J.i.b.i.i.i.v.6.t.t.t.] r.>.Q >.! ] Q Q Q ! Z Z A A u u u u r r d d w r 5 9 : 5 : r : $ $ : o o ",
"Y.Y.Y.Y.E.L.E.L.A.Z.i.J.J.J.n.n.A.J.A.i.i.b.r.r.t.t.t.t.] Q >.Q ] ! Q Q L ! Z Z A A ) u u u u 9 z w r k r 9 9 r % : : : : $ + + ",
"Y.Y.Y.Y.L.L.L.E.Z.J.i.v.b.J.b.p.A.A.J.i.v.v.r.t.t.t.r.] Q >.Q >.! Q ! Q ! ! Z Z A u ) u u r r u z d k r r h 9 h 9 : : $ $ $ + + ",
"Y.Y.L.L.E.J.E.L.Z.J.J.J.b.v.b.b.A.i.b.i.i.p.t.6.t.t.r.r.r.] >.Q ] ] Q Q Z L Z Z _ u d u d u r 9 w w w 6 h 9 % r % : : $ $ $ + + ",
"K.Z.C.C.C.s.C.s.K.Z.v.b.J.J.v.v.r.t.b.w.w.6.r.r.t.r.6.r.6.Q >.] Q Y Y Y Z L Z 8 b L b d d w k r r w > r r , # + < % + + + X X   ",
"K.Z.C.C.C.C.C.C.Z.Z.v.J.v.v.b.t.v.p.r.r.t.r.6.r.6.t.6.] r.>.=.=.Q Q Q Z Y Y N b Y d Y d w k r > z w r > % 9 + + % % + + X X   X ",
"C.C.C.C.C.s.C.C.Z.Z.Z.v.b.J.b.b.r.t.t.t.6.6.r.r.t.6.r.6.6.Q 6.Y Y Q Y ! Y Z b 8 L b Y d d r k r z , > r w % % % % % % + X   X   ",
"C.C.C.C.C.C.s.C.Z.Z.Z.v.J.b.b.b.b.r.b.r.t.r.r.P r.r.] r.r.=.] r.Y ;.Y Y Z Y 8 N d Y b b w k r 6 , z r > % , % % % % + + X X   X ",
"C.C.C.C.s.C.C.s.Z.Z.v.J.v.J.v.v.v.r.t.6.t.r.r.P t.i.r.r.P r.=.=.Q E E Y Z Y 8 Z Y d Y d z r 6 r w w > r > > % % : + + + X   X   ",
"C.C.C.C.s.C.C.C.Z.Z.v.v.v.b.b.b.p.t.b.r.r.6.r.r.t.r.6.r.r.6.] 6.E E E E Y Z d b d Y V d r k r k w w r > r > % % + + < X X X   X ",
"C.C.C.C.C.s.C.s.Z.Z.J.v.J.b.b.b.b.r.t.t.w.6.6.r.6.6.r.r.] Q >.Y E E E Y Y Y d d Y b ) d 8 r k r w w > r > w + % : + + + X   X   ",
"C.C.C.C.C.C.C.C.Z.Z.b.v.v.b.b.b.r.b.t.6.t.r.r.r.t.v.r.P 6.6.=.r.E E E G Z Y b L d Y b d k > r k w w r > # % + % + : + X X X   X ",
"C.C.C.C.C.C.C.C.v.Z.v.v.v.v.r.r.r.6.r.t.r.6.r.P r.6.P r.Y =.Y Y G E G Z Z 8 8 8 b 8 d d r 6 > r r > > # # % + + + + o o o       ",
"C.C.C.C.C.s.C.s.Z.<.<.v.<.v.r.v.r.P r.P r.r.r.6.r.r.r.Y Q Y Y Y E G Y Y Y 8 k r d 8 8 w k r r 6 # # r # % # + + + + o o o       ",
"C.C.C.C.s.C.C.C.s.s.Z.v.v.v.r.r.r.r.P r.6.r.r.r.P r.>.=.=.=.Y Y G E G Z N 8 8 8 Z N 8 d r r 6 r > # # # # % + + + + + o         ",
"C.C.C.C.C.C.C.s.s.s.<.v.v.b.6.b.6.r.r.r.] 6.6.] 6.r.Y >.=.Y Y Y E G E Z 8 8 8 r N d w w > r > r > r # r % # + + + + + X X       ",
"C.C.C.C.C.C.s.C.s.v.v.r.v.i.r.r.r.r.P 6.] 6.6.] r.r.6.] >.Y Y Y Z Y Y Z Z 8 8 8 b 8 d 8 k > > 6 # > # # # + + + + + o o         ",
"C.C.C.C.C.s.C.C.s.v.i.v.r.v.r.b.6.r.r.r.=.r.r.r.r.P =.=.Y ;.Y Y Y Z Y Y N 8 N r 8 b r k r r r r # r > # r % + + + X o o X       ",
"C.C.C.C.C.C.C.C.s.s.i.v.v.v.t.b.P r.r.r.r.6.r.6.6.r.6.Q Y +.Y Y Y Z Z Z 8 8 8 r 8 d k r r k > r # r r # % # + + + + o o         ",
"C.C.C.C.C.s.C.C.s.s.v.v.r.v.b.6.r.r.6.P r.r.6.] r.r.=.>.;.E Y Y G Y Y Y Z 8 8 k N 8 8 8 > r r r > > # # % % + + + + o o X       "
};
